<svg width="428" height="269" viewBox="0 0 428 269" fill="none" xmlns="http://www.w3.org/2000/svg">
<path d="M72.8704 211.094C-0.532497 211.094 -57.125 171.387 -115.925 130.095C-189.425 78.5225 -265.423 25.1668 -380.598 48.8474C-428.506 58.6813 -467.172 90.6352 -504.577 121.549C-508.992 125.19 -513.358 128.807 -517.701 132.349L-518.841 130.887C-514.499 127.345 -510.132 123.729 -505.717 120.087C-468.143 89.0499 -429.307 56.9474 -380.962 47.0144C-265.035 23.1852 -188.697 76.739 -114.906 128.534C-28.7439 188.999 52.6398 246.12 189.379 178.744C206.553 170.297 224.406 156.723 245.098 141.018C284.152 111.368 332.74 74.4849 398.308 58.285C475.058 39.3355 559.571 51.9933 656.674 97.0508C664.533 100.692 672.562 104.457 680.713 108.297C789.071 159.25 923.917 222.662 1037.1 155.98L1038 157.59C923.99 224.743 788.658 161.107 679.936 109.981C671.786 106.142 663.781 102.376 655.922 98.7352C437.387 -2.65047 326.87 81.2472 246.19 142.505C225.425 158.259 207.499 171.882 190.179 180.404C146.006 202.177 107.559 211.045 72.8704 211.045V211.094Z" fill="url(#paint0_linear_480_40904)"/>
<path d="M38.1338 196.628C30.3229 196.628 22.5848 196.207 14.8952 195.39C-41.9884 189.668 -87.8592 162.519 -136.447 133.761C-206.502 92.3197 -278.935 49.4419 -390.325 70.6455C-434.765 79.2161 -472.266 106.092 -508.531 132.052C-514.596 136.386 -520.854 140.895 -526.991 145.155L-527.913 143.768C-521.8 139.507 -515.542 135.024 -509.477 130.689C-473.067 104.606 -435.419 77.6555 -390.616 69.0106C-278.595 47.6832 -205.896 90.7096 -135.598 132.324C-87.18 160.959 -41.4548 188.033 15.0649 193.73C61.4451 198.734 110.203 188.553 164.151 162.569C180.379 154.741 197.748 142.505 216.11 129.55C249.27 106.142 286.869 79.6372 334.996 65.2703C420.067 39.8558 510.595 52.7116 619.875 105.745C625.309 108.396 630.839 111.071 636.419 113.82C742.181 165.467 873.826 229.746 993.852 167.027L994.604 168.538C873.85 231.654 741.793 167.176 635.715 115.356C630.136 112.631 624.605 109.931 619.172 107.306C510.28 54.4703 420.139 41.6392 335.457 66.9299C287.597 81.2225 250.119 107.653 217.032 130.986C198.597 143.991 181.18 156.277 164.83 164.154C119.517 185.977 77.8189 196.703 38.1095 196.703L38.1338 196.628Z" fill="url(#paint1_linear_480_40904)"/>
<path d="M843.941 202.573C753.024 202.573 665.576 158.011 591.227 120.137L582.422 115.653C477.436 62.273 390.546 45.1566 308.944 61.8272C260.502 71.7106 221.86 96.8526 187.778 119.047C170.822 130.07 154.812 140.498 139.53 147.682C86.3818 172.675 38.7888 184.317 -6.06314 183.252C-63.6745 182.608 -109.4 160.86 -157.769 137.823C-224.234 106.191 -292.98 73.4693 -400.028 92.4435C-440.926 99.7012 -476.924 121.772 -511.733 143.149C-519.762 148.078 -528.083 153.181 -536.233 157.961L-536.985 156.649C-528.859 151.893 -520.539 146.79 -512.509 141.861C-477.579 120.434 -441.459 98.2646 -400.295 90.9573C-292.761 71.9088 -223.822 104.73 -157.138 136.461C-108.89 159.423 -63.3349 181.097 -6.01462 181.741C38.5948 182.782 85.9937 171.214 138.923 146.319C154.109 139.185 170.07 128.782 186.977 117.784C221.18 95.515 259.944 70.2987 308.652 60.3409C390.594 43.6208 477.799 60.762 583.077 114.316L591.882 118.799C694.928 171.313 823.176 236.657 950.601 177.902L951.207 179.289C915.306 195.836 879.357 202.598 843.941 202.598V202.573Z" fill="url(#paint2_linear_480_40904)"/>
<path d="M802.558 210.574C707.493 210.574 620.36 164.005 546.497 124.521L545.672 124.075C442.456 68.9115 361.267 48.1538 282.43 56.7739C233.527 62.1244 193.381 86.0279 157.941 107.132C142.635 116.248 128.177 124.868 114.205 131.284C62.8764 154.865 15.3561 168.266 -26.9973 171.115C-86.0399 175.97 -132.008 159.77 -180.644 142.629C-243.228 120.558 -307.947 97.7443 -409.731 114.242C-447.136 120.31 -481.387 137.996 -514.523 155.113C-524.662 160.364 -535.166 165.764 -545.5 170.743L-546.057 169.529C-535.724 164.575 -525.245 159.15 -515.105 153.924C-481.897 136.758 -447.548 118.997 -409.925 112.929C-307.825 96.382 -242.961 119.27 -180.207 141.39C-131.692 158.506 -85.8458 174.657 -27.0701 169.802C15.1378 166.953 62.5125 153.602 113.696 130.095C127.595 123.704 142.028 115.108 157.311 106.018C192.848 84.8389 233.139 60.8611 282.309 55.4859C361.412 46.841 442.82 67.6482 546.302 122.936L547.127 123.382C647.286 176.911 771.921 243.544 907.35 188.85L907.835 190.114C871.91 204.629 836.712 210.648 802.582 210.648L802.558 210.574Z" fill="url(#paint3_linear_480_40904)"/>
<path d="M761.951 218.575C731.847 218.575 701.137 214.141 669.433 205.323C612.04 189.321 560.76 161.751 508.897 132.547C407.234 75.2775 330.363 63.3382 256.014 51.7703H255.82C208.202 44.3392 166.674 69.6299 130.045 91.9481C115.636 100.717 102.028 109.015 88.8559 114.91C38.5703 137.451 -7.49452 152.264 -48.0044 159.002C-109.74 170.124 -156.75 159.646 -206.527 148.549C-261.955 136.188 -324.781 122.193 -419.458 136.015C-453.297 140.944 -485.438 154.617 -516.536 167.845C-529.005 173.146 -541.885 178.62 -554.766 183.5L-555.178 182.385C-542.346 177.53 -529.466 172.056 -516.997 166.755C-485.826 153.503 -453.613 139.805 -419.628 134.826C-324.757 120.979 -261.809 134.999 -206.284 147.36C-156.629 158.432 -109.74 168.885 -48.1985 157.788C-7.76136 151.075 38.1822 136.287 88.395 113.796C101.494 107.925 115.078 99.6517 129.439 90.9077C166.237 68.4904 207.936 43.1007 255.965 50.5566H256.159C330.605 62.1492 407.598 74.1133 509.431 131.482C598.31 181.568 720.034 250.157 864.026 199.725L864.414 200.839C830.696 212.655 796.711 218.55 761.951 218.55V218.575Z" fill="url(#paint4_linear_480_40904)"/>
<path d="M721.562 226.675C689.906 226.675 658.177 222.092 625.915 212.927C567.673 196.381 516.005 167.102 472.147 140.969C383.802 88.3068 315.954 70.0262 244.103 50.6557C239.203 49.3428 234.279 48.0052 229.331 46.6676C182.878 34.0594 139.141 58.1611 100.572 79.439C87.6187 86.5729 75.393 93.3352 63.5312 98.5123C14.1673 120.063 -30.4178 136.337 -68.9871 146.84C-136.229 165.839 -183.87 161.553 -239.032 156.574C-288.953 152.066 -345.546 146.988 -429.185 157.788C-459.265 161.677 -487.549 171.263 -517.482 181.394C-532.595 186.497 -548.217 191.798 -564.032 196.257L-564.299 195.291C-548.508 190.832 -532.91 185.556 -517.798 180.453C-487.816 170.297 -459.483 160.711 -429.307 156.822C-345.546 145.997 -288.905 151.1 -238.935 155.608C-183.87 160.562 -136.301 164.848 -69.2539 145.898C-30.7332 135.396 13.8035 119.146 63.143 97.6205C74.9564 92.4683 87.1821 85.7307 100.111 78.5968C138.85 57.2446 182.756 33.0191 229.597 45.7263C234.522 47.064 239.446 48.4016 244.346 49.7144C316.245 69.0849 384.19 87.3903 472.632 140.127C571.457 199.056 679.766 253.031 820.75 210.723L821.042 211.689C787.663 221.721 754.673 226.724 721.562 226.724V226.675Z" fill="url(#paint5_linear_480_40904)"/>
<path d="M681.659 234.849C580.772 234.849 502.639 191.971 435.397 149.391C350.302 95.515 283.837 56.229 202.963 41.6144C150.712 32.1768 101.834 53.9253 58.6798 73.1225C51.5966 76.2683 44.9259 79.2408 38.2308 82.0894C-11.5696 103.268 -54.6993 120.954 -89.9696 134.677C-170.189 165.962 -220.838 167.597 -290.942 169.851C-331.21 171.139 -376.838 172.626 -438.864 179.561C-464.868 182.459 -490.047 188.925 -516.73 195.786C-534.948 200.468 -553.796 205.298 -573.226 209.013L-573.371 208.196C-553.965 204.505 -535.142 199.675 -516.924 194.993C-490.217 188.132 -464.989 181.667 -438.937 178.744C-376.862 171.808 -331.234 170.347 -290.942 169.034C-220.935 166.78 -170.334 165.145 -90.2364 133.909C-54.9662 120.186 -11.8607 102.5 37.9398 81.3215C44.6348 78.4729 51.3056 75.5005 58.3887 72.3546C101.64 53.1079 150.664 31.3099 203.133 40.7722C284.152 55.4116 350.691 94.7224 435.858 148.648C522.87 203.762 628.22 259.372 777.5 221.572L777.694 222.39C743.491 231.059 711.592 234.824 681.683 234.824L681.659 234.849Z" fill="url(#paint6_linear_480_40904)"/>
<path d="M642.968 243.122C607.019 243.122 572.525 238.168 538.831 228.235C482.578 211.664 436.392 183.351 398.648 157.838C391.249 152.834 383.996 147.905 376.913 143.099C306.736 95.3664 251.308 57.6905 176.498 36.586C120.973 20.9311 66.2968 43.5961 18.0731 63.5859L12.9062 65.7161C-32.4066 84.4426 -75.2453 104.11 -110.976 122.564C-227.048 180.899 -273.016 185.159 -425.353 199.229C-432.824 199.923 -440.562 200.641 -448.567 201.384C-469.816 203.366 -490.896 207.156 -513.237 211.193C-535.36 215.181 -558.259 219.293 -582.444 221.795L-582.516 221.126C-558.356 218.649 -535.481 214.512 -513.358 210.524C-491.017 206.512 -469.913 202.697 -448.64 200.715C-440.635 199.972 -432.897 199.254 -425.425 198.56C-273.186 184.491 -227.242 180.255 -111.292 121.97C-75.5364 103.516 -32.6735 83.8481 12.6393 65.0969L17.8062 62.9666C66.1512 42.9273 120.924 20.2127 176.668 35.942C251.599 57.0712 307.052 94.7967 377.277 142.554C384.36 147.384 391.589 152.289 399.011 157.293C484.325 214.958 583.974 263.979 734.152 232.57L734.273 233.239C702.666 239.853 672.32 243.147 642.968 243.147V243.122Z" fill="url(#paint7_linear_480_40904)"/>
<path d="M605.369 251.52C566.339 251.52 529.88 246.343 495.265 235.939C438.866 219.021 394.378 189.816 361.898 166.26C346.882 155.361 332.57 144.585 318.719 134.157C264.043 92.9389 216.814 57.3685 150.058 31.5081C94.5565 10.0073 37.0908 29.4273 -12.4186 49.3181C-57.028 67.2271 -98.3869 88.3564 -132.032 110.427L-140.037 115.406C-252.082 185.036 -294.023 211.094 -458.27 223.157C-473.334 224.272 -488.47 225.932 -504.505 227.715C-531.988 230.762 -560.418 233.908 -591.637 234.502V234.007C-560.442 233.412 -532.037 230.267 -504.553 227.22C-488.519 225.436 -473.358 223.752 -458.294 222.662C-294.168 210.599 -252.252 184.565 -140.279 114.985L-132.275 110.006C-98.6295 87.9353 -57.2221 66.7813 -12.5884 48.8722C10.9413 39.4346 38.7888 29.1301 67.1215 24.4237C98.171 19.2714 125.363 21.4265 150.252 31.0622C217.081 56.9474 266.614 94.2517 319.035 133.785C332.886 144.214 347.198 155.014 362.213 165.888C439.424 221.869 532.67 270.023 690.877 243.519L690.95 244.014C661.016 249.018 632.562 251.544 605.393 251.544L605.369 251.52Z" fill="url(#paint8_linear_480_40904)"/>
<path d="M569.565 260.065C526.411 260.065 487.454 254.616 451.674 243.692C395.785 226.601 354.693 197.867 325.172 174.731C307.003 160.513 289.804 145.873 273.14 131.73C227.997 93.3848 185.376 57.1703 123.641 26.4797C80.2689 4.90455 28.9887 6.9605 -37.7192 32.9448C-80.7034 49.6896 -121.674 72.8996 -153.063 98.3141C-172.712 112.953 -189.619 126.305 -205.969 139.21C-283.786 200.641 -330.749 237.722 -467.949 244.955C-473.164 245.228 -478.452 245.525 -483.813 245.822C-518.137 247.755 -557.022 249.934 -600.807 247.259V246.912C-557.022 249.588 -518.137 247.383 -483.837 245.476C-478.476 245.178 -473.188 244.881 -467.973 244.609C-330.87 237.4 -283.932 200.344 -206.163 138.938C-190.565 126.627 -172.906 112.681 -153.257 98.0416C-121.844 72.6023 -80.8489 49.3676 -37.8405 32.6227C-7.85835 20.9558 18.4367 14.2678 42.5728 12.1871C72.6035 9.61095 99.9416 14.2926 123.811 26.1824C185.595 56.8978 228.239 93.1371 273.382 131.482C290.023 145.626 307.246 160.265 325.39 174.459C394.524 228.607 481.414 275.77 647.553 254.443L647.601 254.789C620.142 258.307 594.186 260.09 569.589 260.09L569.565 260.065Z" fill="url(#paint9_linear_480_40904)"/>
<path d="M536.599 268.834C511.372 268.834 487.866 267.298 465.889 264.227C504.628 269.627 549.844 270.37 604.205 265.391V265.565C580.384 267.744 557.873 268.834 536.575 268.834H536.599ZM-505.159 267.15C-532.716 267.15 -568.229 265.738 -610 259.991V259.818C-552.607 267.72 -506.979 267.422 -477.652 266.531C-353.163 262.716 -306.564 215.825 -242.088 150.927C-222.609 131.308 -200.511 109.089 -174.24 86.0527C-144.525 56.9226 -105.058 32.1769 -63.0924 16.3733C-34.6142 5.64767 -7.37312 0.148623 17.8788 0C18.2184 0 18.5338 0 18.8734 0C47.8853 0 74.2773 7.15868 97.3219 21.2779C155.904 57.1703 195.856 95.7132 234.498 132.993C252.691 150.53 269.841 167.102 288.543 183.029C328.956 217.485 372.644 244.361 433.336 258.257C424.651 256.276 416.234 254.021 408.059 251.47C384.651 244.188 363.11 234.601 342.2 222.191C324.347 211.59 307.27 199.204 288.446 183.153C269.744 167.201 252.569 150.629 234.376 133.092C195.758 95.8371 155.806 57.2942 97.2248 21.4017C42.7184 -12.0137 -20.0112 0.297247 -63.0439 16.5219C-104.985 32.3255 -144.427 57.0465 -174.119 86.1766C-200.389 109.213 -222.488 131.432 -241.967 151.051C-274.423 183.723 -302.44 211.912 -337.614 232.124C-356.17 242.776 -375.746 250.677 -397.457 256.276C-421.083 262.369 -447.306 265.763 -477.627 266.704C-485.608 266.952 -494.802 267.15 -505.135 267.15H-505.159Z" fill="url(#paint10_linear_480_40904)"/>
<defs>
<linearGradient id="paint0_linear_480_40904" x1="-546.542" y1="-2537.26" x2="1066.26" y2="-2537.26" gradientUnits="userSpaceOnUse">
<stop stop-color="#646262"/>
<stop offset="0.145833" stop-color="#CBC5C5"/>
<stop offset="0.296875" stop-color="#7E7D7D"/>
<stop offset="0.53125" stop-color="#868484"/>
<stop offset="0.723958" stop-color="#ABABAB"/>
<stop offset="0.9999" stop-color="#888383"/>
</linearGradient>
<linearGradient id="paint1_linear_480_40904" x1="-555.004" y1="-2132.85" x2="1022.24" y2="-2132.85" gradientUnits="userSpaceOnUse">
<stop stop-color="#646262"/>
<stop offset="0.145833" stop-color="#CBC5C5"/>
<stop offset="0.296875" stop-color="#7E7D7D"/>
<stop offset="0.53125" stop-color="#868484"/>
<stop offset="0.723958" stop-color="#ABABAB"/>
<stop offset="0.9999" stop-color="#888383"/>
</linearGradient>
<linearGradient id="paint2_linear_480_40904" x1="-563.465" y1="-2197.97" x2="978.217" y2="-2197.97" gradientUnits="userSpaceOnUse">
<stop stop-color="#646262"/>
<stop offset="0.145833" stop-color="#CBC5C5"/>
<stop offset="0.296875" stop-color="#7E7D7D"/>
<stop offset="0.53125" stop-color="#868484"/>
<stop offset="0.723958" stop-color="#ABABAB"/>
<stop offset="0.9999" stop-color="#888383"/>
</linearGradient>
<linearGradient id="paint3_linear_480_40904" x1="-571.927" y1="-2329.65" x2="934.222" y2="-2329.65" gradientUnits="userSpaceOnUse">
<stop stop-color="#646262"/>
<stop offset="0.145833" stop-color="#CBC5C5"/>
<stop offset="0.296875" stop-color="#7E7D7D"/>
<stop offset="0.53125" stop-color="#868484"/>
<stop offset="0.723958" stop-color="#ABABAB"/>
<stop offset="0.9999" stop-color="#888383"/>
</linearGradient>
<linearGradient id="paint4_linear_480_40904" x1="-580.438" y1="-2520.61" x2="890.179" y2="-2520.61" gradientUnits="userSpaceOnUse">
<stop stop-color="#646262"/>
<stop offset="0.145833" stop-color="#CBC5C5"/>
<stop offset="0.296875" stop-color="#7E7D7D"/>
<stop offset="0.53125" stop-color="#868484"/>
<stop offset="0.723958" stop-color="#ABABAB"/>
<stop offset="0.9999" stop-color="#888383"/>
</linearGradient>
<linearGradient id="paint5_linear_480_40904" x1="-588.949" y1="-2757.82" x2="846.185" y2="-2757.82" gradientUnits="userSpaceOnUse">
<stop stop-color="#646262"/>
<stop offset="0.145833" stop-color="#CBC5C5"/>
<stop offset="0.296875" stop-color="#7E7D7D"/>
<stop offset="0.53125" stop-color="#868484"/>
<stop offset="0.723958" stop-color="#ABABAB"/>
<stop offset="0.9999" stop-color="#888383"/>
</linearGradient>
<linearGradient id="paint6_linear_480_40904" x1="-597.412" y1="-2941.28" x2="802.215" y2="-2941.28" gradientUnits="userSpaceOnUse">
<stop stop-color="#646262"/>
<stop offset="0.145833" stop-color="#CBC5C5"/>
<stop offset="0.296875" stop-color="#7E7D7D"/>
<stop offset="0.53125" stop-color="#868484"/>
<stop offset="0.723958" stop-color="#ABABAB"/>
<stop offset="0.9999" stop-color="#888383"/>
</linearGradient>
<linearGradient id="paint7_linear_480_40904" x1="-605.947" y1="-3193.4" x2="758.172" y2="-3193.4" gradientUnits="userSpaceOnUse">
<stop stop-color="#646262"/>
<stop offset="0.145833" stop-color="#CBC5C5"/>
<stop offset="0.296875" stop-color="#7E7D7D"/>
<stop offset="0.53125" stop-color="#868484"/>
<stop offset="0.723958" stop-color="#ABABAB"/>
<stop offset="0.9999" stop-color="#888383"/>
</linearGradient>
<linearGradient id="paint8_linear_480_40904" x1="-614.459" y1="-3466.1" x2="714.228" y2="-3466.1" gradientUnits="userSpaceOnUse">
<stop stop-color="#646262"/>
<stop offset="0.145833" stop-color="#CBC5C5"/>
<stop offset="0.296875" stop-color="#7E7D7D"/>
<stop offset="0.53125" stop-color="#868484"/>
<stop offset="0.723958" stop-color="#ABABAB"/>
<stop offset="0.9999" stop-color="#888383"/>
</linearGradient>
<linearGradient id="paint9_linear_480_40904" x1="-623.02" y1="-3760.86" x2="670.259" y2="-3760.86" gradientUnits="userSpaceOnUse">
<stop stop-color="#646262"/>
<stop offset="0.145833" stop-color="#CBC5C5"/>
<stop offset="0.296875" stop-color="#7E7D7D"/>
<stop offset="0.53125" stop-color="#868484"/>
<stop offset="0.723958" stop-color="#ABABAB"/>
<stop offset="0.9999" stop-color="#888383"/>
</linearGradient>
<linearGradient id="paint10_linear_480_40904" x1="-631.605" y1="-4079.58" x2="626.242" y2="-4079.58" gradientUnits="userSpaceOnUse">
<stop stop-color="#646262"/>
<stop offset="0.145833" stop-color="#CBC5C5"/>
<stop offset="0.296875" stop-color="#7E7D7D"/>
<stop offset="0.53125" stop-color="#868484"/>
<stop offset="0.723958" stop-color="#ABABAB"/>
<stop offset="0.9999" stop-color="#888383"/>
</linearGradient>
</defs>
</svg>
