<svg width="428" height="165" viewBox="0 0 428 165" fill="none" xmlns="http://www.w3.org/2000/svg">
<path d="M160.561 131.883C122.255 131.883 92.722 105.646 62.037 78.3618C23.6808 44.2851 -15.9792 9.02983 -76.0833 24.677C-101.084 31.1748 -121.263 52.2887 -140.782 72.7151C-143.086 75.1211 -145.365 77.5107 -147.631 79.8513L-148.226 78.8856C-145.96 76.5451 -143.681 74.1554 -141.377 71.7494C-121.769 51.2412 -101.502 30.0291 -76.2732 23.4658C-15.7767 7.72044 24.0606 43.1066 62.5687 77.3307C107.533 117.283 150.003 155.026 221.361 110.507C230.323 104.926 239.64 95.9567 250.438 85.5798C270.819 65.9881 296.174 41.6172 330.391 30.913C370.444 18.3919 414.547 26.7556 465.22 56.5278C469.322 58.9338 473.512 61.4217 477.765 63.9586C534.312 97.6262 604.682 139.527 663.748 95.4657L664.217 96.5296C604.72 140.901 534.097 98.8537 477.36 65.0716C473.107 62.5346 468.929 60.0468 464.828 57.6408C350.785 -9.35068 293.111 46.0855 251.008 86.5619C240.172 96.9715 230.817 105.974 221.779 111.604C198.727 125.991 178.663 131.85 160.561 131.85V131.883Z" fill="url(#paint0_linear_480_40865)"/>
<path d="M142.433 122.324C138.357 122.324 134.319 122.046 130.306 121.506C100.621 117.725 76.6833 99.7867 51.3277 80.7842C14.769 53.4016 -23.0302 25.0698 -81.1594 39.0802C-104.35 44.7433 -123.921 62.5019 -142.846 79.6548C-146.011 82.5191 -149.276 85.498 -152.479 88.3132L-152.96 87.3966C-149.77 84.5814 -146.504 81.6189 -143.34 78.7546C-124.339 61.5198 -104.692 43.7122 -81.3113 38C-22.8529 23.9077 15.0855 52.3378 51.7708 79.8349C77.0377 98.7555 100.9 116.645 130.395 120.409C154.598 123.716 180.042 116.989 208.196 99.8194C216.664 94.6473 225.728 86.5619 235.311 78.0017C252.615 62.5346 272.237 45.0216 297.352 35.5285C341.746 18.7356 388.989 27.2303 446.017 62.2727C448.852 64.024 451.739 65.7917 454.65 67.6085C509.842 101.734 578.542 144.208 641.178 102.766L641.57 103.764C578.555 145.468 509.64 102.864 454.283 68.6233C451.371 66.8229 448.485 65.0388 445.65 63.3039C388.824 28.3924 341.784 19.9141 297.592 36.6251C272.616 46.0691 253.058 63.533 235.792 78.9511C226.171 87.5439 217.082 95.6621 208.55 100.867C184.903 115.287 163.143 122.374 142.42 122.374L142.433 122.324Z" fill="url(#paint1_linear_480_40865)"/>
<path d="M562.946 126.253C515.501 126.253 469.866 96.8078 431.067 71.7822L426.472 68.8197C371.684 33.5481 326.34 22.2382 283.756 33.2535C258.476 39.784 238.311 56.3969 220.525 71.062C211.677 78.3455 203.322 85.2361 195.347 89.9826C167.612 106.497 142.775 114.19 119.369 113.486C89.3041 113.061 65.4423 98.69 40.2006 83.4684C5.51547 62.5673 -30.3596 40.9461 -86.2229 53.4835C-107.566 58.2791 -126.351 72.8624 -144.517 86.9874C-148.707 90.2445 -153.049 93.6162 -157.302 96.7751L-157.695 95.9076C-153.454 92.7651 -149.112 89.3934 -144.922 86.1363C-126.693 71.9786 -107.844 57.3298 -86.3622 52.5014C-30.2457 39.915 5.73066 61.6017 40.5297 82.5682C65.7081 97.7407 89.4814 112.062 119.394 112.488C142.674 113.175 167.409 105.532 195.03 89.0824C202.955 84.3686 211.284 77.4944 220.108 70.2273C237.957 55.513 258.185 38.8511 283.604 32.2714C326.366 21.2235 371.874 32.5497 426.813 67.9358L431.408 70.8983C485.183 105.597 552.11 148.774 618.607 109.951L618.923 110.867C600.188 121.801 581.428 126.269 562.946 126.269V126.253Z" fill="url(#paint2_linear_480_40865)"/>
<path d="M541.35 131.539C491.74 131.539 446.27 100.769 407.724 74.6791L407.294 74.3845C353.43 37.9345 311.061 24.2187 269.92 29.9145C244.4 33.4498 223.45 49.2443 204.955 63.1893C196.967 69.2124 189.423 74.9083 182.131 79.1474C155.345 94.7291 130.547 103.584 108.444 105.466C77.6328 108.674 53.6443 97.9698 28.2634 86.6437C-4.39633 72.0604 -38.1701 56.986 -91.2864 67.8867C-110.806 71.8967 -128.681 83.583 -145.972 94.8928C-151.264 98.3627 -156.745 101.931 -162.138 105.221L-162.429 104.419C-157.036 101.145 -151.568 97.5607 -146.276 94.1072C-128.946 82.7646 -111.022 71.0292 -91.3877 67.0192C-38.1067 56.0858 -4.25708 71.2093 28.4913 85.8253C53.8089 97.1351 77.734 107.807 108.406 104.599C130.433 102.716 155.155 93.8944 181.865 78.3618C189.119 74.139 196.651 68.4595 204.626 62.4527C223.171 48.4587 244.197 32.6151 269.857 29.0634C311.137 23.3512 353.62 37.0997 407.623 73.6316L408.053 73.9262C460.321 109.296 525.362 153.324 596.036 117.185L596.29 118.02C577.542 127.611 559.174 131.588 541.363 131.588L541.35 131.539Z" fill="url(#paint3_linear_480_40865)"/>
<path d="M520.159 136.826C504.45 136.826 488.424 133.896 471.879 128.069C441.928 117.496 415.167 99.2793 388.103 79.9822C335.05 42.1409 294.934 34.2519 256.135 26.6083H256.033C231.184 21.6981 209.512 38.4092 190.397 53.1561C182.878 58.9502 175.776 64.4332 168.903 68.3286C142.661 83.2229 118.622 93.0106 97.4816 97.4625C65.265 104.811 40.7322 97.888 14.7563 90.5555C-14.1691 82.3882 -46.9554 73.1406 -96.3627 82.2736C-114.022 85.5307 -130.795 94.5655 -147.023 103.306C-153.53 106.808 -160.252 110.425 -166.974 113.65L-167.189 112.913C-160.492 109.705 -153.77 106.088 -147.264 102.585C-130.997 93.8289 -114.186 84.7778 -96.4513 81.488C-46.9427 72.3386 -14.0931 81.6025 14.8829 89.7698C40.7955 97.086 65.265 103.993 97.3804 96.6605C118.483 92.2249 142.458 82.4536 168.662 67.5921C175.498 63.7131 182.587 58.2464 190.081 52.4687C209.284 37.6563 231.045 20.8797 256.109 25.8063H256.21C295.06 33.4662 335.239 41.3716 388.381 79.2784C434.763 112.373 498.285 157.694 573.428 124.37L573.63 125.107C556.034 132.914 538.299 136.81 520.159 136.81V136.826Z" fill="url(#paint4_linear_480_40865)"/>
<path d="M499.082 142.178C482.563 142.178 466.005 139.15 449.169 133.094C418.775 122.161 391.812 102.815 368.924 85.5471C322.821 50.7501 287.414 38.671 249.919 25.8718C247.362 25.0043 244.792 24.1205 242.21 23.2366C217.968 14.9057 195.144 30.8311 175.017 44.8906C168.257 49.6044 161.877 54.0727 155.687 57.4935C129.926 71.733 106.659 82.4864 86.5316 89.4261C51.4414 101.98 26.5795 99.1483 -2.2066 95.8585C-28.2584 92.8796 -57.7915 89.5243 -101.439 96.6605C-117.136 99.2302 -131.896 105.564 -147.517 112.259C-155.404 115.63 -163.556 119.133 -171.809 122.079L-171.949 121.441C-163.708 118.495 -155.568 115.008 -147.682 111.637C-132.035 104.926 -117.25 98.5918 -101.502 96.0222C-57.7915 88.8696 -28.2331 92.2413 -2.15598 95.2202C26.5795 98.4936 51.4034 101.325 86.3924 88.8042C106.495 81.8644 129.736 71.1274 155.484 56.9042C161.649 53.4998 168.029 49.0479 174.776 44.3341C194.992 30.2255 217.905 14.2182 242.349 22.6147C244.919 23.4985 247.488 24.3824 250.046 25.2498C287.566 38.0491 323.024 50.1445 369.178 84.9906C420.75 123.928 477.271 159.593 550.844 131.637L550.996 132.276C533.578 138.905 516.362 142.211 499.082 142.211V142.178Z" fill="url(#paint5_linear_480_40865)"/>
<path d="M478.259 147.579C425.611 147.579 384.837 119.247 349.746 91.112C305.339 55.513 270.654 29.5544 228.45 19.8977C201.183 13.6618 175.675 28.0323 153.155 40.717C149.459 42.7956 145.978 44.7597 142.484 46.6419C116.495 60.636 93.9878 72.3223 75.5819 81.3898C33.7192 102.062 7.28763 103.142 -29.2963 104.631C-50.31 105.482 -74.1212 106.465 -106.49 111.047C-120.06 112.962 -133.2 117.234 -147.125 121.768C-156.631 124.861 -166.467 128.053 -176.607 130.508L-176.683 129.968C-166.556 127.529 -156.733 124.338 -147.226 121.244C-133.288 116.71 -120.123 112.439 -106.528 110.507C-74.1338 105.924 -50.3226 104.959 -29.2963 104.091C7.237 102.602 33.6433 101.522 75.4427 80.8824C93.8486 71.8149 116.343 60.1286 142.332 46.1345C145.826 44.2523 149.307 42.2882 153.003 40.2096C175.574 27.4922 201.157 13.0889 228.538 19.3412C270.819 29.0143 305.542 54.9893 349.987 90.621C395.394 127.038 450.371 163.783 528.274 138.806L528.375 139.346C510.526 145.075 493.88 147.563 478.271 147.563L478.259 147.579Z" fill="url(#paint6_linear_480_40865)"/>
<path d="M458.068 153.046C439.308 153.046 421.307 149.772 403.724 143.209C374.368 132.259 350.266 113.552 330.568 96.6932C326.708 93.387 322.923 90.1299 319.226 86.9547C282.604 55.4148 253.679 30.5201 214.639 16.5752C185.663 6.231 157.13 21.2071 131.964 34.4155L129.268 35.8231C105.621 48.1968 83.2659 61.1925 64.6195 73.3861C4.04705 111.931 -19.9414 114.746 -99.4387 124.043C-103.338 124.501 -107.376 124.976 -111.553 125.467C-122.642 126.776 -133.643 129.281 -145.302 131.948C-156.846 134.584 -168.796 137.301 -181.417 138.954L-181.455 138.512C-168.847 136.875 -156.91 134.142 -145.365 131.507C-133.706 128.855 -122.693 126.334 -111.591 125.025C-107.414 124.534 -103.376 124.059 -99.4767 123.601C-20.03 114.304 3.94577 111.506 64.4549 72.9933C83.114 60.7997 105.482 47.804 129.129 35.4139L131.825 34.0064C157.054 20.7652 185.638 5.75635 214.728 16.1496C253.831 30.1109 282.769 55.0384 319.416 86.5946C323.112 89.7862 326.885 93.0269 330.758 96.3331C375.279 134.436 427.282 166.827 505.653 146.073L505.716 146.515C489.221 150.885 473.385 153.062 458.068 153.062V153.046Z" fill="url(#paint7_linear_480_40865)"/>
<path d="M438.447 158.594C418.079 158.594 399.053 155.174 380.988 148.299C351.557 137.121 328.34 117.823 311.39 102.258C303.555 95.0565 296.086 87.9367 288.858 81.0461C260.325 53.8108 235.678 30.3074 200.841 13.2199C171.878 -0.986981 141.889 11.845 116.052 24.988C92.7726 36.8216 71.1894 50.7829 53.6316 65.3662L49.4542 68.656C-9.01686 114.665 -30.9039 131.883 -116.617 139.854C-124.478 140.59 -132.377 141.687 -140.744 142.865C-155.087 144.879 -169.923 146.957 -186.215 147.35V147.023C-169.936 146.63 -155.112 144.551 -140.77 142.538C-132.402 141.36 -124.491 140.247 -116.629 139.527C-30.9799 131.556 -9.10548 114.354 49.3276 68.3778L53.505 65.0879C71.0628 50.5046 92.6714 36.5269 115.964 24.6934C128.243 18.4574 142.775 11.6486 157.56 8.53881C173.764 5.1344 187.954 6.55836 200.942 12.9252C235.817 30.0291 261.666 54.6783 289.022 80.8006C296.25 87.6912 303.719 94.8274 311.555 102.013C351.848 139.003 400.508 170.821 483.069 153.308L483.107 153.635C467.486 156.941 452.637 158.611 438.459 158.611L438.447 158.594Z" fill="url(#paint8_linear_480_40865)"/>
<path d="M419.762 164.241C397.242 164.241 376.912 160.64 358.241 153.422C329.075 142.129 307.631 123.143 292.225 107.856C282.743 98.4609 273.768 88.7878 265.072 79.4421C241.514 54.1054 219.272 30.1764 187.055 9.89728C164.421 -4.35867 137.661 -3.00018 102.849 14.1691C80.4176 25.2335 59.0368 40.5697 42.6563 57.3625C32.4027 67.0356 23.5795 75.8576 15.0475 84.385C-25.562 124.976 -50.0694 149.478 -121.668 154.257C-124.389 154.437 -127.149 154.634 -129.947 154.83C-147.859 156.107 -168.151 157.547 -191 155.779V155.55C-168.151 157.318 -147.859 155.861 -129.959 154.601C-127.162 154.404 -124.402 154.208 -121.68 154.028C-50.1327 149.265 -25.638 124.78 14.9462 84.2049C23.0858 76.0704 32.3014 66.8556 42.5551 57.1825C58.9482 40.3732 80.3416 25.0207 102.786 13.9564C118.432 6.24736 132.154 1.82818 144.75 0.453329C160.421 -1.24887 174.688 1.84455 187.144 9.70087C219.386 29.9964 241.64 53.9418 265.198 79.2784C273.882 88.6241 282.87 98.2972 292.339 107.676C328.416 143.455 373.76 174.618 460.46 160.526L460.486 160.755C446.156 163.079 432.611 164.258 419.775 164.258L419.762 164.241Z" fill="url(#paint9_linear_480_40865)"/>
<defs>
<linearGradient id="paint0_linear_480_40865" x1="-162.682" y1="-1684.12" x2="678.962" y2="-1684.12" gradientUnits="userSpaceOnUse">
<stop stop-color="#646262"/>
<stop offset="0.145833" stop-color="#CBC5C5"/>
<stop offset="0.296875" stop-color="#7E7D7D"/>
<stop offset="0.53125" stop-color="#868484"/>
<stop offset="0.723958" stop-color="#ABABAB"/>
<stop offset="0.9999" stop-color="#888383"/>
</linearGradient>
<linearGradient id="paint1_linear_480_40865" x1="-167.098" y1="-1416.9" x2="655.99" y2="-1416.9" gradientUnits="userSpaceOnUse">
<stop stop-color="#646262"/>
<stop offset="0.145833" stop-color="#CBC5C5"/>
<stop offset="0.296875" stop-color="#7E7D7D"/>
<stop offset="0.53125" stop-color="#868484"/>
<stop offset="0.723958" stop-color="#ABABAB"/>
<stop offset="0.9999" stop-color="#888383"/>
</linearGradient>
<linearGradient id="paint2_linear_480_40865" x1="-171.513" y1="-1459.93" x2="633.019" y2="-1459.93" gradientUnits="userSpaceOnUse">
<stop stop-color="#646262"/>
<stop offset="0.145833" stop-color="#CBC5C5"/>
<stop offset="0.296875" stop-color="#7E7D7D"/>
<stop offset="0.53125" stop-color="#868484"/>
<stop offset="0.723958" stop-color="#ABABAB"/>
<stop offset="0.9999" stop-color="#888383"/>
</linearGradient>
<linearGradient id="paint3_linear_480_40865" x1="-175.929" y1="-1546.94" x2="610.06" y2="-1546.94" gradientUnits="userSpaceOnUse">
<stop stop-color="#646262"/>
<stop offset="0.145833" stop-color="#CBC5C5"/>
<stop offset="0.296875" stop-color="#7E7D7D"/>
<stop offset="0.53125" stop-color="#868484"/>
<stop offset="0.723958" stop-color="#ABABAB"/>
<stop offset="0.9999" stop-color="#888383"/>
</linearGradient>
<linearGradient id="paint4_linear_480_40865" x1="-180.371" y1="-1673.11" x2="587.076" y2="-1673.11" gradientUnits="userSpaceOnUse">
<stop stop-color="#646262"/>
<stop offset="0.145833" stop-color="#CBC5C5"/>
<stop offset="0.296875" stop-color="#7E7D7D"/>
<stop offset="0.53125" stop-color="#868484"/>
<stop offset="0.723958" stop-color="#ABABAB"/>
<stop offset="0.9999" stop-color="#888383"/>
</linearGradient>
<linearGradient id="paint5_linear_480_40865" x1="-184.812" y1="-1829.85" x2="564.117" y2="-1829.85" gradientUnits="userSpaceOnUse">
<stop stop-color="#646262"/>
<stop offset="0.145833" stop-color="#CBC5C5"/>
<stop offset="0.296875" stop-color="#7E7D7D"/>
<stop offset="0.53125" stop-color="#868484"/>
<stop offset="0.723958" stop-color="#ABABAB"/>
<stop offset="0.9999" stop-color="#888383"/>
</linearGradient>
<linearGradient id="paint6_linear_480_40865" x1="-189.228" y1="-1951.08" x2="541.171" y2="-1951.08" gradientUnits="userSpaceOnUse">
<stop stop-color="#646262"/>
<stop offset="0.145833" stop-color="#CBC5C5"/>
<stop offset="0.296875" stop-color="#7E7D7D"/>
<stop offset="0.53125" stop-color="#868484"/>
<stop offset="0.723958" stop-color="#ABABAB"/>
<stop offset="0.9999" stop-color="#888383"/>
</linearGradient>
<linearGradient id="paint7_linear_480_40865" x1="-193.682" y1="-2117.66" x2="518.188" y2="-2117.66" gradientUnits="userSpaceOnUse">
<stop stop-color="#646262"/>
<stop offset="0.145833" stop-color="#CBC5C5"/>
<stop offset="0.296875" stop-color="#7E7D7D"/>
<stop offset="0.53125" stop-color="#868484"/>
<stop offset="0.723958" stop-color="#ABABAB"/>
<stop offset="0.9999" stop-color="#888383"/>
</linearGradient>
<linearGradient id="paint8_linear_480_40865" x1="-198.125" y1="-2297.86" x2="495.255" y2="-2297.86" gradientUnits="userSpaceOnUse">
<stop stop-color="#646262"/>
<stop offset="0.145833" stop-color="#CBC5C5"/>
<stop offset="0.296875" stop-color="#7E7D7D"/>
<stop offset="0.53125" stop-color="#868484"/>
<stop offset="0.723958" stop-color="#ABABAB"/>
<stop offset="0.9999" stop-color="#888383"/>
</linearGradient>
<linearGradient id="paint9_linear_480_40865" x1="-202.592" y1="-2492.62" x2="472.31" y2="-2492.62" gradientUnits="userSpaceOnUse">
<stop stop-color="#646262"/>
<stop offset="0.145833" stop-color="#CBC5C5"/>
<stop offset="0.296875" stop-color="#7E7D7D"/>
<stop offset="0.53125" stop-color="#868484"/>
<stop offset="0.723958" stop-color="#ABABAB"/>
<stop offset="0.9999" stop-color="#888383"/>
</linearGradient>
</defs>
</svg>
