<?xml version="1.0" encoding="UTF-8"?><svg id="a" xmlns="http://www.w3.org/2000/svg" xmlns:xlink="http://www.w3.org/1999/xlink" viewBox="0 0 16192.42 3792.69"><defs><style>.m{fill:url(#j);}.n{fill:url(#g);}.o{fill:url(#h);}.p{fill:url(#i);}.q{fill:url(#k);}.r{fill:url(#l);}.s{fill:url(#f);}.t{fill:url(#d);}.u{fill:url(#e);}.v{fill:url(#c);}.w,.x{fill:none;}.x{clip-path:url(#b);}</style><clipPath id="b"><rect class="w" width="16192.42" height="3792.69"/></clipPath><linearGradient id="c" x1="-653.14" y1="1175.28" x2="21583.27" y2="1175.28" gradientTransform="translate(0 3686.54) scale(1 -1)" gradientUnits="userSpaceOnUse"><stop offset="0" stop-color="#474747"/><stop offset=".15" stop-color="#ababab"/><stop offset=".3" stop-color="#3a3a3a"/><stop offset=".53" stop-color="#5b5b5b"/><stop offset=".72" stop-color="#ababab"/><stop offset="1" stop-color="#474747"/></linearGradient><linearGradient id="d" x1="-769.81" y1="1188.11" x2="20976.37" y2="1188.11" xlink:href="#c"/><linearGradient id="e" x1="-886.47" y1="1155.28" x2="20369.47" y2="1155.28" xlink:href="#c"/><linearGradient id="f" x1="-1003.14" y1="1122.18" x2="19762.88" y2="1122.18" xlink:href="#c"/><linearGradient id="g" x1="-1120.48" y1="1106.4" x2="19155.66" y2="1106.4" xlink:href="#c"/><linearGradient id="h" x1="-1237.83" y1="1101.38" x2="18549.08" y2="1101.38" xlink:href="#c"/><linearGradient id="i" x1="-1354.5" y1="1081.85" x2="17942.81" y2="1081.85" xlink:href="#c"/><linearGradient id="j" x1="-1472.18" y1="1079.64" x2="17335.59" y2="1079.64" xlink:href="#c"/><linearGradient id="k" x1="-1589.54" y1="1082.23" x2="16729.72" y2="1082.23" xlink:href="#c"/><linearGradient id="l" x1="-1715.43" y1="1089.71" x2="16572.68" y2="1089.71" xlink:href="#c"/></defs><g class="x"><path class="v" d="m7886.99,3264.97c-1012.07,0-1792.3-352.27-2603-718.61-1013.38-457.53-2061.21-930.89-3649.17-720.8-660.53,87.24-1193.65,370.72-1709.37,644.98-60.87,32.3-121.07,64.39-180.93,95.82l-15.71-12.97c59.87-31.43,120.06-63.51,180.93-95.82,518.06-275.35,1053.51-560.16,1720.07-648.28,1598.33-211.4,2650.84,263.71,3668.23,723.22,1187.98,536.43,2310.04,1043.19,4195.36,445.44,236.73-74.93,482.9-195.36,768.22-334.68,538.46-263.05,1208.36-590.27,2112.35-733.99,1058.18-168.12,2223.39-55.82,3562.25,343.91,108.32,32.3,219.03,65.71,331.43,99.77,1493.92,452.04,3353.14,1014.62,4913.67,423.03l12.41,14.29c-1571.9,595.76-3437.84,31.2-4936.81-422.38-112.4-34.06-222.72-67.46-331.11-99.76-3013.06-899.47-4536.77-155.15-5649.14,388.31-286.28,139.77-533.49,260.63-772.3,336.22-608.98,193.17-1139.11,271.84-1617.37,271.84v.44Z"/><path class="t" d="m7408.1,3136.64c-107.75,0-214.39-3.74-320.46-10.99-784.24-50.76-1416.69-291.61-2086.59-546.75-965.88-367.65-1964.55-748.05-3500.34-559.94-612.71,76.04-1129.76,314.47-1629.76,544.77-83.62,38.46-169.9,78.46-254.52,116.25l-12.7-12.31c84.28-37.8,170.57-77.58,254.18-116.03,502.01-231.41,1021.07-470.5,1638.8-547.19,1544.49-189.21,2546.83,192.51,3516.06,561.7,667.55,254.04,1297.99,494.23,2077.28,544.77,639.41,44.39,1311.72-45.93,2055.52-276.45,223.76-69.45,463.2-178,716.34-292.94,457.2-207.67,975.64-442.81,1639.14-570.27,1172.9-225.47,2421.13-111.42,3927.78,359.08,74.93,23.51,151.15,47.25,228.08,71.64,1458.22,458.19,3273.24,1028.46,4928.08,472.04l10.41,13.4c-1664.92,559.94-3485.63-12.08-4948.18-471.81-76.93-24.17-153.15-48.13-228.08-71.42-1501.37-468.74-2744.16-582.58-3911.69-358.21-659.9,126.8-1176.66,361.28-1632.82,568.29-254.18,115.37-494.27,224.37-719.7,294.26-624.76,193.6-1199.72,288.76-1747.22,288.76l.4-.66Z"/><path class="u" d="m18518.09,3189.38c-1253.52,0-2459.16-395.34-3484.27-731.35l-121.37-39.77c-1447.49-473.58-2645.53-625.42-3770.63-477.53-667.83,87.68-1200.6,310.73-1670.53,507.64-233.76,97.79-454.56,190.31-665.26,254.04-732.75,221.73-1388.97,325.02-2007.32,315.57-794.32-5.72-1424.75-198.66-2091.64-403.03-916.39-280.63-1864.22-570.93-3340.14-402.6-563.88,64.39-1060.2,260.19-1540.14,449.84-110.7,43.73-225.41,89-337.79,131.41l-10.37-11.64c112.04-42.19,226.75-87.46,337.45-131.2,481.61-190.09,979.6-386.77,1547.16-451.6,1482.61-168.99,2433.11,122.19,3352.52,403.69,665.22,203.72,1293.31,396.01,2083.59,401.72,615.07,9.23,1268.57-93.4,1998.36-314.25,209.35-63.29,429.42-155.59,662.54-253.16,471.61-197.56,1005.98-421.27,1677.57-509.61,1129.83-148.33,2332.11,3.73,3783.6,478.85l121.44,39.78c1420.75,465.88,3188.95,1045.6,4945.85,524.34l8.33,12.31c-494.99,146.79-990.61,206.79-1478.95,206.79v-.22Z"/><path class="s" d="m17947.54,3260.36c-1310.67,0-2511.99-413.14-3530.38-763.43l-11.45-3.95c-1423.07-489.4-2542.41-673.56-3629.41-597.08-674.23,47.47-1227.74,259.53-1716.4,446.77-211.03,80.87-410.37,157.34-602.98,214.26-707.69,209.21-1362.87,328.1-1946.8,353.37-814.08,43.08-1447.86-100.65-2118.43-252.72-862.87-195.8-1755.19-398.2-3158.53-251.84-515.72,53.84-987.96,210.75-1444.82,362.6-139.8,46.59-284.61,94.49-427.09,138.66l-7.69-10.77c142.48-43.95,286.95-92.08,426.75-138.45,457.86-152.29,931.44-309.85,1450.17-363.7,1407.69-146.8,2302.01,56.25,3167.23,252.5,668.9,151.86,1301,295.13,2111.37,252.06,581.93-25.28,1235.1-143.72,1940.8-352.27,191.65-56.69,390.67-132.95,601.38-213.6,489.94-187.9,1045.45-400.62,1723.36-448.31,1090.68-76.69,2213.06,107.9,3639.82,598.4l11.37,3.95c1380.97,474.89,3099.36,1066.04,4966.59,580.82l6.65,11.21c-495.31,128.78-980.6,182.18-1451.17,182.18l-.32-.66Z"/><path class="n" d="m17387.71,3331.34c-415.09,0-838.51-39.33-1275.61-117.56-791.27-141.97-1498.33-386.55-2213.39-645.65-1401.7-508.08-2461.56-614-3486.59-716.63h-2.72c-656.54-65.93-1229.1,158.44-1734.09,356.44-198.7,77.79-386.27,151.41-567.92,203.71-693.28,199.98-1328.45,331.39-1886.94,391.17-851.17,98.67-1499.33,5.72-2185.62-92.74-764.22-109.66-1630.44-233.82-2935.79-111.2-466.56,43.73-909.7,165.04-1338.46,282.39-171.9,47.03-349.5,95.59-527.09,138.89l-5.69-9.89c176.92-43.08,354.52-91.64,526.42-138.67,429.77-117.57,873.91-239.1,1342.48-283.27,1308.03-122.84,2175.92,1.54,2941.47,111.2,684.62,98.23,1331.11,190.97,2179.6,92.52,557.49-59.55,1190.98-190.75,1883.3-390.29,180.61-52.08,367.86-125.48,565.83-203.06,507.39-198.88,1082.28-424.13,1744.5-357.99h2.72c1026.4,102.85,2087.94,208.99,3491.96,717.94,1225.42,444.35,2903.71,1052.86,4888.93,605.43l5.36,9.89c-464.89,104.83-933.45,157.13-1412.67,157.13v.22Z"/><path class="o" d="m16830.84,3403.2c-436.46,0-873.89-40.65-1318.76-121.96-802.96-146.79-1515.38-406.55-2120.04-638.39-1218.05-467.2-2153.5-629.39-3144.2-801.24-67.49-11.64-135.45-23.51-203.66-35.38-640.45-111.85-1243.43,101.97-1775.24,290.74-178.61,63.29-347.12,123.28-510.68,169.21-680.64,191.19-1295.34,335.57-1827.12,428.74-927.1,168.55-1583.95,130.53-2344.49,86.36-688.3-39.99-1468.57-85.04-2621.74,10.77-414.72,34.5-804.69,119.54-1217.39,209.43-208.36,45.27-423.75,92.3-641.81,131.85l-3.68-8.57c217.73-39.56,432.78-86.36,641.14-131.63,413.38-90.1,804.01-175.14,1220.07-209.64,1154.85-96.03,1935.78-50.77,2624.75-10.77,759.19,43.95,1415.05,81.97,2339.47-86.14,531.11-93.18,1145.12-237.34,1825.44-428.31,162.83-45.71,331.43-105.48,509.72-168.77,534.05-189.43,1139.44-404.35,1785.25-291.61,67.89,11.86,135.77,23.73,203.34,35.38,991.33,171.85,1928.15,334.25,3147.48,802.11,1362.55,522.8,2855.91,1001.65,4799.67,626.3l4.08,8.58c-460.24,89-915.12,133.39-1371.6,133.39v-.45Z"/><path class="p" d="m16280.69,3475.72c-1390.97,0-2468.28-380.4-3395.33-758.16-1173.3-477.97-2089.7-826.5-3204.72-956.15-720.42-83.73-1394.33,109.22-1989.31,279.53-97.67,27.9-189.65,54.27-281.96,79.55-686.56,187.89-1281.24,344.8-1767.53,466.54-1106.02,277.56-1804.35,292.06-2770.91,312.06-555.18,11.43-1184.28,24.61-2039.46,86.15-358.53,25.71-705.68,83.06-1073.58,143.94-251.17,41.54-511.04,84.39-778.93,117.35l-2.01-7.25c267.56-32.75,527.09-75.6,778.26-117.13,368.23-60.87,716.05-118.23,1075.25-144.16,855.85-61.53,1484.95-74.5,2040.46-86.14,965.23-20,1662.88-34.51,2767.23-311.62,486.29-121.74,1080.57-278.65,1767.21-466.54,92.3-25.28,184.29-51.65,281.96-79.55,596.34-170.75,1272.25-364.14,1995.63-280.19,1117.1,129.88,2034.46,478.63,3208.72,957.04,1199.64,488.96,2652.17,982.31,4710.41,646.96l2.64,7.25c-471.61,76.91-911.36,110.32-1323.72,110.32l-.32.22Z"/><path class="m" d="m15747.2,3549.12c-495.63,0-971.24-43.95-1435.8-132.07-775.58-147.02-1412.35-398.2-1932.71-624.55-102.07-44.39-202.06-88.13-299.73-130.76-967.56-423.47-1731.77-757.72-2763.21-944.95-765.49-138.89-1519.38,62.19-2184.25,239.53l-71.25,18.9c-624.76,166.14-1215.39,340.62-1708.04,504.34-1600.33,517.52-2234.11,555.32-4334.45,680.15-103.01,6.16-209.7,12.53-320.07,19.12-292.97,17.58-583.61,51.21-891.64,87.02-305.01,35.38-620.74,71.86-954.18,94.05l-1-5.93c333.11-21.98,648.5-58.68,953.51-94.06,308.03-35.6,599-69.44,892.31-87.02,110.37-6.59,217.06-12.96,320.06-19.12,2099-124.82,2732.45-162.4,4331.11-679.48,492.98-163.72,1083.95-338.2,1708.7-504.56l71.25-18.9c666.55-177.79,1421.71-379.3,2190.25-239.76,1033.12,187.45,1797.74,522.14,2765.93,945.83,97.67,42.85,197.34,86.36,299.65,130.75,1176.26,511.6,2550.18,946.49,4620.75,667.85l1.68,5.93c-435.74,58.67-854.2,87.9-1258.88,87.9v-.22Z"/><path class="q" d="m15228.84,3623.61c-538.13,0-1040.81-45.93-1518.1-138.22-777.58-150.09-1390.97-409.18-1838.8-618.17-207.02-96.7-404.36-192.29-595.3-284.81-753.81-365.68-1404.98-681.24-2325.38-910.67-765.25-190.75-1557.57-18.46-2240.2,158-615.02,158.88-1185.25,346.34-1649.14,542.14l-110.37,44.17c-1544.82,617.73-2123.08,848.92-4387.63,955.94-207.7,9.89-416.39,24.61-637.46,40.43-378.93,27.03-770.91,54.94-1201.34,60.21v-4.39c430.1-5.28,821.74-33.19,1200.67-60.21,221.07-15.82,430.1-30.77,637.8-40.43,2262.88-107.02,2840.81-337.99,4384.62-955.28l110.37-44.17c463.88-195.8,1034.79-383.48,1650.16-542.36,324.39-83.73,708.33-175.14,1099.01-216.9,428.06-45.71,803.04-26.59,1146.16,58.89,921.44,229.65,1604.32,560.6,2327.07,911.33,191.01,92.52,388.35,188.34,595.38,284.81,1064.5,496.65,2350.12,923.86,4531.4,688.71l1.04,4.4c-412.77,44.39-805.04,66.8-1179.62,66.8l-.32-.22Z"/><path class="r" d="m14735.13,3699.43c-594.97,0-1132.07-48.35-1625.38-145.26-770.54-151.63-1337.17-406.55-1744.18-611.8-250.49-126.14-487.62-256.02-717.38-381.5-622.43-340.18-1210.05-661.47-2061.2-933.74-598.02-191.41-1304.99-173.17-2224.75,57.36-592.65,148.55-1157.53,354.46-1590.3,579.94-270.9,129.88-504.02,248.32-729.43,362.82-1072.92,545-1720.41,873.97-3612.05,938.14-71.91,2.42-144.81,5.06-218.73,7.69-473.24,17.15-1009.36,36.48-1613.04,12.75v-3.08c603.68,23.73,1139.8,4.18,1612.71-12.75,73.92-2.64,146.82-5.27,218.73-7.69,1890.3-63.95,2537.47-392.7,3609.7-937.48,215.05-109.22,458.54-232.94,729.44-362.82,433.11-225.69,998.33-431.82,1591.3-580.38,413.4-103.51,775.89-162.84,1108.69-181.3,414.05-22.86,790.95,18.68,1120.06,124.16,851.87,272.5,1439.81,594.01,2062.24,934.18,229.44,125.48,466.89,255.36,717.06,381.28,953.15,480.39,2151.18,898.8,4441.82,709.59,147.28-15.43,294.57-30.85,441.85-46.28-330.53,41.85-661.79,70.04-993.79,84.58-174.26,7.63-348.72,11.49-523.38,11.59Z"/></g></svg>