<svg width="111" height="29" viewBox="0 0 111 29" fill="none" xmlns="http://www.w3.org/2000/svg">
<path d="M10.9252 10.2992C10.8325 10.4613 10.7321 10.581 10.624 10.6582C10.5237 10.7277 10.3963 10.7625 10.2419 10.7625C10.0797 10.7625 9.90214 10.7046 9.70912 10.5887C9.52381 10.4652 9.29991 10.3301 9.03739 10.1834C8.77488 10.0367 8.46605 9.90544 8.11088 9.78963C7.76344 9.66609 7.35037 9.60433 6.87167 9.60433C6.4393 9.60433 6.06098 9.65837 5.7367 9.76646C5.41242 9.86684 5.13833 10.0097 4.91442 10.195C4.69823 10.3803 4.53609 10.6042 4.428 10.8667C4.31991 11.1215 4.26586 11.4033 4.26586 11.7121C4.26586 12.1059 4.37395 12.434 4.59014 12.6966C4.81405 12.9591 5.10744 13.183 5.47033 13.3683C5.83321 13.5536 6.24628 13.7196 6.70953 13.8663C7.17279 14.013 7.64763 14.1713 8.13405 14.3411C8.62046 14.5033 9.0953 14.6963 9.55856 14.9202C10.0218 15.1364 10.4349 15.4143 10.7978 15.754C11.1607 16.086 11.4502 16.4953 11.6664 16.9817C11.8903 17.4681 12.0022 18.0587 12.0022 18.7536C12.0022 19.5103 11.871 20.2206 11.6085 20.8846C11.3537 21.5409 10.9753 22.1161 10.4735 22.6102C9.97935 23.0967 9.37326 23.4827 8.65521 23.7684C7.93716 24.0463 7.11488 24.1853 6.18837 24.1853C5.65563 24.1853 5.1306 24.1313 4.6133 24.0232C4.096 23.9228 3.598 23.7761 3.1193 23.5831C2.64833 23.39 2.20437 23.1584 1.78744 22.8882C1.37051 22.618 0.999907 22.3168 0.675628 21.9848L1.59056 20.4908C1.66777 20.3827 1.76814 20.294 1.89167 20.2245C2.01521 20.1473 2.14646 20.1087 2.28544 20.1087C2.47846 20.1087 2.68693 20.1897 2.91084 20.3519C3.13474 20.5063 3.40112 20.68 3.70995 20.873C4.01879 21.066 4.37781 21.2436 4.78702 21.4058C5.20395 21.5602 5.70195 21.6374 6.28102 21.6374C7.16893 21.6374 7.85609 21.4289 8.34251 21.012C8.82893 20.5873 9.07214 19.9813 9.07214 19.1937C9.07214 18.7536 8.96019 18.3946 8.73628 18.1167C8.52009 17.8387 8.23056 17.6071 7.86767 17.4218C7.50479 17.2287 7.09172 17.0666 6.62846 16.9353C6.16521 16.8041 5.69423 16.6613 5.21553 16.5068C4.73684 16.3524 4.26586 16.1671 3.8026 15.9509C3.33935 15.7347 2.92628 15.4529 2.56339 15.1055C2.20051 14.758 1.90712 14.3257 1.68321 13.8084C1.46702 13.2833 1.35893 12.6387 1.35893 11.8743C1.35893 11.2643 1.4786 10.6698 1.71795 10.0907C1.96502 9.51167 2.32019 8.99823 2.78344 8.55042C3.2467 8.1026 3.81805 7.74358 4.49749 7.47335C5.17693 7.20312 5.95674 7.068 6.83693 7.068C7.82521 7.068 8.73628 7.22242 9.57014 7.53126C10.404 7.84009 11.1143 8.27246 11.7011 8.82837L10.9252 10.2992ZM19.005 9.73172V14.3759H24.8652V16.7732H19.005V21.51H26.4403V24H15.878V7.2533H26.4403V9.73172H19.005ZM44.477 7.2533V24H42.8788C42.6317 24 42.4232 23.9614 42.2534 23.8842C42.0912 23.7993 41.933 23.6603 41.7785 23.4673L33.0346 12.3028C33.0809 12.8124 33.1041 13.2833 33.1041 13.7157V24H30.3593V7.2533H31.9923C32.1235 7.2533 32.2355 7.26102 32.3281 7.27646C32.4285 7.28419 32.5134 7.30735 32.5829 7.34595C32.6601 7.37684 32.7335 7.42702 32.803 7.49651C32.8724 7.55828 32.9497 7.64321 33.0346 7.7513L41.8133 18.9621C41.7901 18.6919 41.7708 18.4255 41.7554 18.163C41.7399 17.9005 41.7322 17.6573 41.7322 17.4333V7.2533H44.477ZM58.2822 10.2992C58.1896 10.4613 58.0892 10.581 57.9811 10.6582C57.8807 10.7277 57.7533 10.7625 57.5989 10.7625C57.4368 10.7625 57.2592 10.7046 57.0662 10.5887C56.8809 10.4652 56.657 10.3301 56.3944 10.1834C56.1319 10.0367 55.8231 9.90544 55.4679 9.78963C55.1205 9.66609 54.7074 9.60433 54.2287 9.60433C53.7964 9.60433 53.418 9.65837 53.0937 9.76646C52.7695 9.86684 52.4954 10.0097 52.2715 10.195C52.0553 10.3803 51.8931 10.6042 51.785 10.8667C51.677 11.1215 51.6229 11.4033 51.6229 11.7121C51.6229 12.1059 51.731 12.434 51.9472 12.6966C52.1711 12.9591 52.4645 13.183 52.8274 13.3683C53.1903 13.5536 53.6033 13.7196 54.0666 13.8663C54.5298 14.013 55.0047 14.1713 55.4911 14.3411C55.9775 14.5033 56.4524 14.6963 56.9156 14.9202C57.3789 15.1364 57.7919 15.4143 58.1548 15.754C58.5177 16.086 58.8072 16.4953 59.0234 16.9817C59.2473 17.4681 59.3593 18.0587 59.3593 18.7536C59.3593 19.5103 59.228 20.2206 58.9655 20.8846C58.7107 21.5409 58.3324 22.1161 57.8305 22.6102C57.3364 23.0967 56.7303 23.4827 56.0123 23.7684C55.2942 24.0463 54.4719 24.1853 53.5454 24.1853C53.0127 24.1853 52.4877 24.1313 51.9703 24.0232C51.453 23.9228 50.955 23.7761 50.4763 23.5831C50.0054 23.39 49.5614 23.1584 49.1445 22.8882C48.7276 22.618 48.357 22.3168 48.0327 21.9848L48.9476 20.4908C49.0248 20.3827 49.1252 20.294 49.2487 20.2245C49.3723 20.1473 49.5035 20.1087 49.6425 20.1087C49.8355 20.1087 50.044 20.1897 50.2679 20.3519C50.4918 20.5063 50.7582 20.68 51.067 20.873C51.3758 21.066 51.7349 21.2436 52.1441 21.4058C52.561 21.5602 53.059 21.6374 53.6381 21.6374C54.526 21.6374 55.2131 21.4289 55.6996 21.012C56.186 20.5873 56.4292 19.9813 56.4292 19.1937C56.4292 18.7536 56.3172 18.3946 56.0933 18.1167C55.8771 17.8387 55.5876 17.6071 55.2247 17.4218C54.8618 17.2287 54.4488 17.0666 53.9855 16.9353C53.5223 16.8041 53.0513 16.6613 52.5726 16.5068C52.0939 16.3524 51.6229 16.1671 51.1597 15.9509C50.6964 15.7347 50.2833 15.4529 49.9204 15.1055C49.5576 14.758 49.2642 14.3257 49.0403 13.8084C48.8241 13.2833 48.716 12.6387 48.716 11.8743C48.716 11.2643 48.8357 10.6698 49.075 10.0907C49.3221 9.51167 49.6772 8.99823 50.1405 8.55042C50.6037 8.1026 51.1751 7.74358 51.8545 7.47335C52.534 7.20312 53.3138 7.068 54.194 7.068C55.1823 7.068 56.0933 7.22242 56.9272 7.53126C57.761 7.84009 58.4714 8.27246 59.0582 8.82837L58.2822 10.2992ZM77.3528 7.2533V24H74.2258V16.6806H66.362V24H63.2351V7.2533H66.362V14.4569H74.2258V7.2533H77.3528ZM98.2111 15.6267C98.2111 16.8543 98.0065 17.9931 97.5972 19.0432C97.1958 20.0855 96.6244 20.9888 95.8832 21.7532C95.142 22.5176 94.2502 23.116 93.2079 23.5483C92.1656 23.973 91.0074 24.1853 89.7335 24.1853C88.4672 24.1853 87.313 23.973 86.2706 23.5483C85.2283 23.116 84.3327 22.5176 83.5838 21.7532C82.8425 20.9888 82.2673 20.0855 81.8581 19.0432C81.4489 17.9931 81.2443 16.8543 81.2443 15.6267C81.2443 14.399 81.4489 13.264 81.8581 12.2217C82.2673 11.1717 82.8425 10.2645 83.5838 9.50009C84.3327 8.73572 85.2283 8.14121 86.2706 7.71656C87.313 7.28419 88.4672 7.068 89.7335 7.068C90.5828 7.068 91.3819 7.16837 92.1308 7.36912C92.8798 7.56214 93.5669 7.84009 94.1923 8.20298C94.8177 8.55814 95.3775 8.99437 95.8716 9.51167C96.3735 10.0213 96.7981 10.5926 97.1456 11.2257C97.493 11.8588 97.7555 12.546 97.9331 13.2872C98.1184 14.0284 98.2111 14.8082 98.2111 15.6267ZM95.0262 15.6267C95.0262 14.7079 94.9026 13.8856 94.6556 13.1598C94.4085 12.4263 94.0572 11.8048 93.6017 11.2952C93.1461 10.7856 92.5902 10.3957 91.9339 10.1255C91.2854 9.85526 90.5519 9.72014 89.7335 9.72014C88.9151 9.72014 88.1777 9.85526 87.5214 10.1255C86.8729 10.3957 86.317 10.7856 85.8537 11.2952C85.3982 11.8048 85.0469 12.4263 84.7998 13.1598C84.5527 13.8856 84.4292 14.7079 84.4292 15.6267C84.4292 16.5454 84.5527 17.3716 84.7998 18.1051C85.0469 18.8308 85.3982 19.4485 85.8537 19.9581C86.317 20.46 86.8729 20.846 87.5214 21.1162C88.1777 21.3865 88.9151 21.5216 89.7335 21.5216C90.5519 21.5216 91.2854 21.3865 91.9339 21.1162C92.5902 20.846 93.1461 20.46 93.6017 19.9581C94.0572 19.4485 94.4085 18.8308 94.6556 18.1051C94.9026 17.3716 95.0262 16.5454 95.0262 15.6267Z" fill="#F2F2F2"/>
<path d="M85 2H95" stroke="#F2F2F2" stroke-width="3"/>
</svg>
