<svg width="107" height="51" viewBox="0 0 107 51" fill="none" xmlns="http://www.w3.org/2000/svg">
<path d="M34.7249 21.2751L50.7204 19.3141L51.0665 21.9287L35.071 23.9666L34.7249 21.2751ZM43.5301 11.547L45.7218 10.3166C47.5675 12.2776 49.5285 14.9307 50.3359 16.7379L48.0289 18.1221C47.2214 16.3149 45.3373 13.508 43.5301 11.547ZM15.5765 11.3932L17.9604 10.6242C19.2293 12.5468 20.4213 15.1999 20.8058 16.9301L18.268 17.853C17.9604 16.1227 16.7685 13.4311 15.5765 11.3932ZM22.7283 10.3935L25.2276 9.81676C26.112 11.9315 26.881 14.6615 26.9963 16.3534L24.3432 17.0455C24.2279 15.3152 23.5742 12.5083 22.7283 10.3935ZM19.3062 26.6197V30.1572H31.8411V26.6197H19.3062ZM19.3062 20.9675V24.4665H31.8411V20.9675H19.3062ZM16.8454 18.6989H34.3789V32.3873H16.8454V18.6989ZM15.4996 35.7325H35.5708V38.3087H15.4996V35.7325ZM32.8024 9.93211L35.7246 10.8549C34.4558 13.3927 32.8793 16.3534 31.6489 18.199L29.3418 17.3531C30.5338 15.3537 32.0334 12.2007 32.8024 9.93211ZM24.3432 19.5832H26.8425V31.1954H26.9963V45.0761H24.1894V31.1954H24.3432V19.5832ZM47.4521 24.082L49.6823 25.3508C46.9523 33.5408 41.1846 41.2694 34.2251 44.9607C33.6868 44.2686 32.8408 43.4227 32.1103 42.8844C39.1852 39.6161 44.8759 32.0413 47.4521 24.082ZM38.4546 9.89366H41.1846C41.6076 27.0427 43.9915 41.4232 47.8751 41.6924C48.6825 41.7308 49.2208 39.6161 49.5285 35.8479C50.0283 36.4246 51.1818 37.1552 51.6432 37.4244C50.8742 43.4227 49.4515 45.153 47.8751 45.0761C41.3 44.8069 39.1468 29.6189 38.4546 9.89366ZM57.5262 11.1241H65.0241V13.7772H57.5262V11.1241ZM67.7925 16.6994H88.5944V19.1218H67.7925V16.6994ZM66.8313 23.0438H89.248V25.5046H66.8313V23.0438ZM69.4459 31.6568H84.211V34.0792H69.4459V31.6568ZM57.3724 20.16H64.5627V22.8131H57.3724V20.16ZM57.3339 29.3882H64.6011V32.0797H57.3339V29.3882ZM56.2573 11.1241H58.7566V24.9279C58.7566 30.8877 58.449 39.3854 55.9113 45.0761C55.4114 44.6146 54.2963 43.9994 53.6427 43.7687C56.0651 38.3472 56.2573 30.6186 56.2573 24.9279V11.1241ZM63.3707 11.1241H65.9469V41.7693C65.9469 43.2304 65.6393 44.0763 64.7165 44.5377C63.7552 44.9992 62.371 45.0761 59.9486 45.0376C59.8332 44.3839 59.4872 43.1535 59.1411 42.3845C60.7561 42.4614 62.2556 42.4614 62.6786 42.423C63.1784 42.3845 63.3707 42.2307 63.3707 41.6924V11.1241ZM81.7117 17.8914C83.1344 23.3899 86.1335 28.6576 90.0939 30.9646C89.4787 31.503 88.6328 32.5027 88.2099 33.2332C83.9803 30.3494 80.9811 24.6587 79.4046 18.3913L81.7117 17.8914ZM84.1341 10.2397L86.8641 11.0472C85.8259 13.0851 84.6339 15.3537 83.5958 16.8148L81.3656 16.0458C82.2884 14.4693 83.5189 11.97 84.1341 10.2397ZM75.6749 27.4656H78.3665C77.8282 35.9248 76.3286 41.9615 68.4846 45.1914C68.177 44.4993 67.4465 43.4996 66.8313 42.9997C74.06 40.2313 75.2135 34.9251 75.6749 27.4656ZM75.9825 9.70141L78.6741 9.97056C77.213 20.7368 74.1369 28.4269 67.4849 33.3101C67.1773 32.7718 66.293 31.6183 65.6777 31.08C72.0221 26.8504 74.7906 19.5448 75.9825 9.70141ZM83.3266 31.6568H86.0566C86.0566 31.6568 86.0566 32.4258 86.0182 32.8103C85.5952 40.0775 85.1723 42.8075 84.2494 43.8456C83.6342 44.5377 82.9806 44.7685 81.9808 44.8454C81.0965 44.9223 79.4431 44.9223 77.7513 44.8454C77.7128 44.0763 77.4437 43.0382 77.0207 42.3845C78.6356 42.5383 80.1737 42.5383 80.7889 42.5383C81.3272 42.5383 81.6348 42.4999 81.9424 42.1923C82.5961 41.5001 82.9806 38.9239 83.3266 32.0797V31.6568ZM68.5231 11.201L70.7148 10.3935C71.7914 12.0854 72.8296 14.3155 73.2141 15.7766L70.7917 16.6994C70.4841 15.1999 69.5228 12.8928 68.5231 11.201Z" fill="#93A603"/>
<path d="M34.7249 21.2751L34.7073 21.1311L34.5625 21.1489L34.5811 21.2936L34.7249 21.2751ZM50.7204 19.3141L50.8642 19.2951L50.8453 19.1527L50.7028 19.1702L50.7204 19.3141ZM51.0665 21.9287L51.0848 22.0726L51.2294 22.0542L51.2102 21.9097L51.0665 21.9287ZM35.071 23.9666L34.9272 23.9851L34.9456 24.1288L35.0893 24.1105L35.071 23.9666ZM43.5301 11.547L43.4592 11.4206L43.2992 11.5104L43.4235 11.6453L43.5301 11.547ZM45.7218 10.3166L45.8274 10.2172L45.7497 10.1347L45.6508 10.1902L45.7218 10.3166ZM50.3359 16.7379L50.4105 16.8622L50.5207 16.7961L50.4683 16.6787L50.3359 16.7379ZM48.0289 18.1221L47.8965 18.1813L47.9632 18.3306L48.1035 18.2465L48.0289 18.1221ZM15.5765 11.3932L15.532 11.2552L15.3602 11.3106L15.4513 11.4665L15.5765 11.3932ZM17.9604 10.6242L18.0814 10.5443L18.0208 10.4524L17.9159 10.4862L17.9604 10.6242ZM20.8058 16.9301L20.8553 17.0664L20.9749 17.0229L20.9473 16.8987L20.8058 16.9301ZM18.268 17.853L18.1253 17.8783L18.1555 18.0482L18.3176 17.9892L18.268 17.853ZM22.7283 10.3935L22.6957 10.2522L22.5308 10.2903L22.5937 10.4474L22.7283 10.3935ZM25.2276 9.81676L25.3614 9.76082L25.3142 9.64796L25.195 9.67547L25.2276 9.81676ZM26.9963 16.3534L27.0329 16.4937L27.1492 16.4634L27.141 16.3435L26.9963 16.3534ZM24.3432 17.0455L24.1986 17.0551L24.2102 17.2301L24.3798 17.1858L24.3432 17.0455ZM19.3062 26.6197V26.4747H19.1612V26.6197H19.3062ZM19.3062 30.1572H19.1612V30.3022H19.3062V30.1572ZM31.8411 30.1572V30.3022H31.9861V30.1572H31.8411ZM31.8411 26.6197H31.9861V26.4747H31.8411V26.6197ZM19.3062 20.9675V20.8225H19.1612V20.9675H19.3062ZM19.3062 24.4665H19.1612V24.6115H19.3062V24.4665ZM31.8411 24.4665V24.6115H31.9861V24.4665H31.8411ZM31.8411 20.9675H31.9861V20.8225H31.8411V20.9675ZM16.8454 18.6989V18.5539H16.7003V18.6989H16.8454ZM34.3789 18.6989H34.5239V18.5539H34.3789V18.6989ZM34.3789 32.3873V32.5323H34.5239V32.3873H34.3789ZM16.8454 32.3873H16.7003V32.5323H16.8454V32.3873ZM15.4996 35.7325V35.5875H15.3546V35.7325H15.4996ZM35.5708 35.7325H35.7159V35.5875H35.5708V35.7325ZM35.5708 38.3087V38.4537H35.7159V38.3087H35.5708ZM15.4996 38.3087H15.3546V38.4537H15.4996V38.3087ZM32.8024 9.93211L32.8461 9.79383L32.7106 9.75107L32.6651 9.88556L32.8024 9.93211ZM35.7246 10.8549L35.8543 10.9198L35.9303 10.7678L35.7683 10.7166L35.7246 10.8549ZM31.6489 18.199L31.599 18.3352L31.7062 18.3745L31.7695 18.2795L31.6489 18.199ZM29.3418 17.3531L29.2173 17.2788L29.1277 17.429L29.2919 17.4892L29.3418 17.3531ZM24.3432 19.5832V19.4382H24.1982V19.5832H24.3432ZM26.8425 19.5832H26.9875V19.4382H26.8425V19.5832ZM26.8425 31.1954H26.6975V31.3404H26.8425V31.1954ZM26.9963 31.1954H27.1413V31.0503H26.9963V31.1954ZM26.9963 45.0761V45.2211H27.1413V45.0761H26.9963ZM24.1894 45.0761H24.0444V45.2211H24.1894V45.0761ZM24.1894 31.1954V31.0503H24.0444V31.1954H24.1894ZM24.3432 31.1954V31.3404H24.4882V31.1954H24.3432ZM47.4521 24.082L47.5238 23.9559L47.369 23.8678L47.3142 24.0373L47.4521 24.082ZM49.6823 25.3508L49.8198 25.3967L49.8575 25.2837L49.754 25.2248L49.6823 25.3508ZM34.2251 44.9607L34.1106 45.0497L34.1854 45.1459L34.293 45.0888L34.2251 44.9607ZM32.1103 42.8844L32.0495 42.7527L31.8268 42.8556L32.0243 43.0011L32.1103 42.8844ZM38.4546 9.89366V9.74865H38.3045L38.3097 9.89875L38.4546 9.89366ZM41.1846 9.89366L41.3296 9.89009L41.3261 9.74865H41.1846V9.89366ZM47.8751 41.6924L47.865 41.8371L47.8682 41.8372L47.8751 41.6924ZM49.5285 35.8479L49.638 35.7529L49.412 35.4921L49.3839 35.8361L49.5285 35.8479ZM51.6432 37.4244L51.7871 37.4428L51.7993 37.3475L51.7163 37.2991L51.6432 37.4244ZM47.8751 45.0761L47.8821 44.9312L47.881 44.9312L47.8751 45.0761ZM34.7426 21.419L50.7381 19.458L50.7028 19.1702L34.7073 21.1311L34.7426 21.419ZM50.5767 19.3331L50.9227 21.9478L51.2102 21.9097L50.8642 19.2951L50.5767 19.3331ZM51.0482 21.7849L35.0527 23.8228L35.0893 24.1105L51.0848 22.0726L51.0482 21.7849ZM35.2148 23.9481L34.8688 21.2566L34.5811 21.2936L34.9272 23.9851L35.2148 23.9481ZM43.6011 11.6735L45.7928 10.4431L45.6508 10.1902L43.4592 11.4206L43.6011 11.6735ZM45.6162 10.416C47.4567 12.3714 49.4055 15.0109 50.2035 16.797L50.4683 16.6787C49.6514 14.8505 47.6783 12.1838 45.8274 10.2172L45.6162 10.416ZM50.2613 16.6135L47.9543 17.9978L48.1035 18.2465L50.4105 16.8622L50.2613 16.6135ZM48.1613 18.063C47.3462 16.2389 45.4525 13.4191 43.6368 11.4488L43.4235 11.6453C45.2221 13.597 47.0966 16.391 47.8965 18.1813L48.1613 18.063ZM15.621 11.5312L18.0049 10.7622L17.9159 10.4862L15.532 11.2552L15.621 11.5312ZM17.8394 10.7041C19.1011 12.6158 20.2844 15.2526 20.6642 16.9616L20.9473 16.8987C20.5581 15.1471 19.3575 12.4777 18.0814 10.5443L17.8394 10.7041ZM20.7562 16.7939L18.2185 17.7167L18.3176 17.9892L20.8553 17.0664L20.7562 16.7939ZM18.4108 17.8276C18.0988 16.0723 16.8968 13.3633 15.7016 11.32L15.4513 11.4665C16.6401 13.4989 17.8221 16.1731 18.1253 17.8783L18.4108 17.8276ZM22.7609 10.5348L25.2602 9.95806L25.195 9.67547L22.6957 10.2522L22.7609 10.5348ZM25.0938 9.87271C25.975 11.9799 26.7378 14.6934 26.8517 16.3632L27.141 16.3435C27.0242 14.6297 26.2489 11.8832 25.3614 9.76082L25.0938 9.87271ZM26.9597 16.2131L24.3066 16.9052L24.3798 17.1858L27.0329 16.4937L26.9597 16.2131ZM24.4879 17.0358C24.3714 15.2882 23.7136 12.4663 22.8629 10.3397L22.5937 10.4474C23.4348 12.5503 24.0844 15.3423 24.1986 17.0551L24.4879 17.0358ZM19.1612 26.6197V30.1572H19.4512V26.6197H19.1612ZM19.3062 30.3022H31.8411V30.0122H19.3062V30.3022ZM31.9861 30.1572V26.6197H31.6961V30.1572H31.9861ZM31.8411 26.4747H19.3062V26.7647H31.8411V26.4747ZM19.1612 20.9675V24.4665H19.4512V20.9675H19.1612ZM19.3062 24.6115H31.8411V24.3215H19.3062V24.6115ZM31.9861 24.4665V20.9675H31.6961V24.4665H31.9861ZM31.8411 20.8225H19.3062V21.1125H31.8411V20.8225ZM16.8454 18.8439H34.3789V18.5539H16.8454V18.8439ZM34.2339 18.6989V32.3873H34.5239V18.6989H34.2339ZM34.3789 32.2423H16.8454V32.5323H34.3789V32.2423ZM16.9904 32.3873V18.6989H16.7003V32.3873H16.9904ZM15.4996 35.8775H35.5708V35.5875H15.4996V35.8775ZM35.4258 35.7325V38.3087H35.7159V35.7325H35.4258ZM35.5708 38.1637H15.4996V38.4537H35.5708V38.1637ZM15.6446 38.3087V35.7325H15.3546V38.3087H15.6446ZM32.7587 10.0704L35.681 10.9932L35.7683 10.7166L32.8461 9.79383L32.7587 10.0704ZM35.5949 10.7901C34.3263 13.3274 32.7532 16.2811 31.5282 18.1186L31.7695 18.2795C33.0054 16.4257 34.5853 13.4579 35.8543 10.9198L35.5949 10.7901ZM31.6988 18.0629L29.3918 17.217L29.2919 17.4892L31.599 18.3352L31.6988 18.0629ZM29.4664 17.4274C30.6629 15.4203 32.1671 12.2581 32.9397 9.97867L32.6651 9.88556C31.8997 12.1433 30.4047 15.2871 29.2173 17.2788L29.4664 17.4274ZM24.3432 19.7282H26.8425V19.4382H24.3432V19.7282ZM26.6975 19.5832V31.1954H26.9875V19.5832H26.6975ZM26.8425 31.3404H26.9963V31.0503H26.8425V31.3404ZM26.8513 31.1954V45.0761H27.1413V31.1954H26.8513ZM26.9963 44.931H24.1894V45.2211H26.9963V44.931ZM24.3344 45.0761V31.1954H24.0444V45.0761H24.3344ZM24.1894 31.3404H24.3432V31.0503H24.1894V31.3404ZM24.4882 31.1954V19.5832H24.1982V31.1954H24.4882ZM47.3804 24.208L49.6105 25.4769L49.754 25.2248L47.5238 23.9559L47.3804 24.208ZM49.5447 25.305C46.8235 33.4684 41.0764 41.1627 34.1571 44.8326L34.293 45.0888C41.2929 41.3762 47.081 33.6133 49.8198 25.3967L49.5447 25.305ZM34.3395 44.8717C33.7939 44.1701 32.9386 43.3146 32.1963 42.7676L32.0243 43.0011C32.7431 43.5308 33.5797 44.3671 34.1106 45.0497L34.3395 44.8717ZM32.1711 43.016C39.2922 39.7264 45.005 32.1133 47.5901 24.1266L47.3142 24.0373C44.7468 31.9693 39.0782 39.5057 32.0495 42.7527L32.1711 43.016ZM38.4546 10.0387H41.1846V9.74865H38.4546V10.0387ZM41.0397 9.89724C41.2513 18.476 41.9534 26.3674 43.0899 32.1509C43.6579 35.0416 44.3359 37.4137 45.1195 39.0835C45.5113 39.9182 45.9327 40.5847 46.3857 41.053C46.8393 41.5219 47.3328 41.8002 47.865 41.8371L47.8851 41.5477C47.4465 41.5173 47.016 41.2874 46.5942 40.8513C46.1718 40.4147 45.7666 39.7795 45.3821 38.9603C44.6133 37.3221 43.9407 34.9768 43.3744 32.095C42.2423 26.3337 41.541 18.4603 41.3296 9.89009L41.0397 9.89724ZM47.8682 41.8372C48.1445 41.8504 48.3705 41.6756 48.5512 41.4061C48.7329 41.1352 48.8905 40.7391 49.029 40.2361C49.3067 39.2278 49.519 37.7461 49.673 35.8597L49.3839 35.8361C49.2303 37.7179 49.0197 39.1777 48.7494 40.1591C48.6139 40.6511 48.4663 41.012 48.3104 41.2445C48.1534 41.4785 48.0094 41.5536 47.882 41.5475L47.8682 41.8372ZM49.4189 35.9429C49.6811 36.2454 50.1068 36.5806 50.5166 36.8699C50.9291 37.1611 51.3365 37.4133 51.5702 37.5496L51.7163 37.2991C51.4886 37.1663 51.0885 36.9186 50.6839 36.633C50.2767 36.3456 49.8757 36.0272 49.638 35.7529L49.4189 35.9429ZM51.4994 37.4059C51.1156 40.3998 50.5704 42.3099 49.9351 43.4582C49.6182 44.031 49.2826 44.4072 48.9403 44.6358C48.6001 44.863 48.2465 44.949 47.8821 44.9312L47.868 45.2209C48.2919 45.2416 48.7073 45.1401 49.1013 44.877C49.4931 44.6154 49.8569 44.1986 50.1888 43.5986C50.8512 42.4014 51.4019 40.4472 51.7871 37.4428L51.4994 37.4059ZM47.881 44.9312C46.3019 44.8665 44.9715 43.9083 43.8486 42.1607C42.7246 40.4115 41.822 37.8903 41.1001 34.7484C39.6567 28.4665 38.9456 19.75 38.5996 9.88858L38.3097 9.89875C38.6558 19.7625 39.3674 28.5026 40.8174 34.8134C41.5422 37.9678 42.454 40.5269 43.6046 42.3175C44.7563 44.1098 46.1607 45.151 47.8691 45.2209L47.881 44.9312ZM57.5262 11.1241V10.9791H57.3812V11.1241H57.5262ZM65.0241 11.1241H65.1691V10.9791H65.0241V11.1241ZM65.0241 13.7772V13.9222H65.1691V13.7772H65.0241ZM57.5262 13.7772H57.3812V13.9222H57.5262V13.7772ZM67.7925 16.6994V16.5544H67.6475V16.6994H67.7925ZM88.5944 16.6994H88.7394V16.5544H88.5944V16.6994ZM88.5944 19.1218V19.2668H88.7394V19.1218H88.5944ZM67.7925 19.1218H67.6475V19.2668H67.7925V19.1218ZM66.8313 23.0438V22.8988H66.6863V23.0438H66.8313ZM89.248 23.0438H89.393V22.8988H89.248V23.0438ZM89.248 25.5046V25.6497H89.393V25.5046H89.248ZM66.8313 25.5046H66.6863V25.6497H66.8313V25.5046ZM69.4459 31.6568V31.5118H69.3009V31.6568H69.4459ZM84.211 31.6568H84.356V31.5118H84.211V31.6568ZM84.211 34.0792V34.2242H84.356V34.0792H84.211ZM69.4459 34.0792H69.3009V34.2242H69.4459V34.0792ZM57.3724 20.16V20.015H57.2274V20.16H57.3724ZM64.5627 20.16H64.7077V20.015H64.5627V20.16ZM64.5627 22.8131V22.9581H64.7077V22.8131H64.5627ZM57.3724 22.8131H57.2274V22.9581H57.3724V22.8131ZM57.3339 29.3882V29.2432H57.1889V29.3882H57.3339ZM64.6011 29.3882H64.7461V29.2432H64.6011V29.3882ZM64.6011 32.0797V32.2247H64.7461V32.0797H64.6011ZM57.3339 32.0797H57.1889V32.2247H57.3339V32.0797ZM56.2573 11.1241V10.9791H56.1123V11.1241H56.2573ZM58.7566 11.1241H58.9016V10.9791H58.7566V11.1241ZM55.9113 45.0761L55.8129 45.1826L55.9614 45.3197L56.0437 45.1351L55.9113 45.0761ZM53.6427 43.7687L53.5103 43.7096L53.4461 43.8531L53.5944 43.9055L53.6427 43.7687ZM63.3707 11.1241V10.9791H63.2257V11.1241H63.3707ZM65.9469 11.1241H66.0919V10.9791H65.9469V11.1241ZM64.7165 44.5377L64.7792 44.6685L64.7813 44.6674L64.7165 44.5377ZM59.9486 45.0376L59.8058 45.0628L59.8266 45.1807L59.9463 45.1826L59.9486 45.0376ZM59.1411 42.3845L59.148 42.2397L58.9119 42.2284L59.0089 42.444L59.1411 42.3845ZM62.6786 42.423L62.6675 42.2784L62.6655 42.2785L62.6786 42.423ZM81.7117 17.8914L81.8521 17.8551L81.8172 17.7202L81.681 17.7497L81.7117 17.8914ZM90.0939 30.9646L90.1894 31.0738L90.3413 30.9409L90.1669 30.8393L90.0939 30.9646ZM88.2099 33.2332L88.1282 33.353L88.2571 33.441L88.3354 33.3059L88.2099 33.2332ZM79.4046 18.3913L79.3739 18.2495L79.2275 18.2813L79.264 18.4266L79.4046 18.3913ZM84.1341 10.2397L84.1752 10.1007L84.0435 10.0617L83.9975 10.1911L84.1341 10.2397ZM86.8641 11.0472L86.9933 11.113L87.0725 10.9576L86.9052 10.9081L86.8641 11.0472ZM83.5958 16.8148L83.5485 16.9519L83.6511 16.9873L83.714 16.8988L83.5958 16.8148ZM81.3656 16.0458L81.2405 15.9725L81.1511 16.1252L81.3184 16.1829L81.3656 16.0458ZM75.6749 27.4656V27.3206H75.5386L75.5302 27.4567L75.6749 27.4656ZM78.3665 27.4656L78.5112 27.4748L78.521 27.3206H78.3665V27.4656ZM68.4846 45.1914L68.3521 45.2503L68.4094 45.3792L68.5399 45.3255L68.4846 45.1914ZM66.8313 42.9997L66.7794 42.8643L66.5451 42.954L66.7398 43.1123L66.8313 42.9997ZM75.9825 9.70141L75.997 9.55712L75.8556 9.54299L75.8386 9.68398L75.9825 9.70141ZM78.6741 9.97056L78.8178 9.99006L78.838 9.84122L78.6885 9.82627L78.6741 9.97056ZM67.4849 33.3101L67.359 33.3821L67.4397 33.5232L67.5707 33.427L67.4849 33.3101ZM65.6777 31.08L65.5973 30.9593L65.4397 31.0644L65.5823 31.1891L65.6777 31.08ZM83.3266 31.6568V31.5118H83.1816V31.6568H83.3266ZM86.0566 31.6568H86.2016V31.5118H86.0566V31.6568ZM86.0182 32.8103L85.8738 32.7958L85.8734 32.8019L86.0182 32.8103ZM84.2494 43.8456L84.1411 43.7493L84.1411 43.7493L84.2494 43.8456ZM81.9808 44.8454L81.9697 44.7008L81.9683 44.7009L81.9808 44.8454ZM77.7513 44.8454L77.6064 44.8526L77.613 44.9842L77.7447 44.9902L77.7513 44.8454ZM77.0207 42.3845L77.0345 42.2402L76.7362 42.2117L76.899 42.4633L77.0207 42.3845ZM81.9424 42.1923L82.045 42.2948L82.0478 42.2918L81.9424 42.1923ZM83.3266 32.0797L83.4716 32.0871V32.0797H83.3266ZM68.5231 11.201L68.473 11.0649L68.3098 11.125L68.3983 11.2748L68.5231 11.201ZM70.7148 10.3935L70.8371 10.3157L70.7744 10.217L70.6647 10.2575L70.7148 10.3935ZM73.2141 15.7766L73.2657 15.9121L73.3875 15.8657L73.3543 15.7397L73.2141 15.7766ZM70.7917 16.6994L70.6496 16.7286L70.6839 16.8957L70.8433 16.8349L70.7917 16.6994ZM57.5262 11.2691H65.0241V10.9791H57.5262V11.2691ZM64.8791 11.1241V13.7772H65.1691V11.1241H64.8791ZM65.0241 13.6322H57.5262V13.9222H65.0241V13.6322ZM57.6712 13.7772V11.1241H57.3812V13.7772H57.6712ZM67.7925 16.8444H88.5944V16.5544H67.7925V16.8444ZM88.4494 16.6994V19.1218H88.7394V16.6994H88.4494ZM88.5944 18.9768H67.7925V19.2668H88.5944V18.9768ZM67.9375 19.1218V16.6994H67.6475V19.1218H67.9375ZM66.8313 23.1888H89.248V22.8988H66.8313V23.1888ZM89.103 23.0438V25.5046H89.393V23.0438H89.103ZM89.248 25.3596H66.8313V25.6497H89.248V25.3596ZM66.9763 25.5046V23.0438H66.6863V25.5046H66.9763ZM69.4459 31.8018H84.211V31.5118H69.4459V31.8018ZM84.066 31.6568V34.0792H84.356V31.6568H84.066ZM84.211 33.9341H69.4459V34.2242H84.211V33.9341ZM69.5909 34.0792V31.6568H69.3009V34.0792H69.5909ZM57.3724 20.305H64.5627V20.015H57.3724V20.305ZM64.4177 20.16V22.8131H64.7077V20.16H64.4177ZM64.5627 22.6681H57.3724V22.9581H64.5627V22.6681ZM57.5174 22.8131V20.16H57.2274V22.8131H57.5174ZM57.3339 29.5332H64.6011V29.2432H57.3339V29.5332ZM64.4561 29.3882V32.0797H64.7461V29.3882H64.4561ZM64.6011 31.9347H57.3339V32.2247H64.6011V31.9347ZM57.479 32.0797V29.3882H57.1889V32.0797H57.479ZM56.2573 11.2691H58.7566V10.9791H56.2573V11.2691ZM58.6116 11.1241V24.9279H58.9016V11.1241H58.6116ZM58.6116 24.9279C58.6116 30.8918 58.3021 39.3587 55.7788 45.017L56.0437 45.1351C58.5959 39.412 58.9016 30.8837 58.9016 24.9279H58.6116ZM56.0096 44.9695C55.7476 44.7276 55.3326 44.452 54.9063 44.2098C54.4789 43.967 54.0286 43.7512 53.6909 43.632L53.5944 43.9055C53.9104 44.017 54.3444 44.2241 54.763 44.462C55.1827 44.7004 55.5751 44.9631 55.8129 45.1826L56.0096 44.9695ZM53.7751 43.8279C56.2121 38.3735 56.4023 30.6132 56.4023 24.9279H56.1123C56.1123 30.624 55.918 38.3209 53.5103 43.7096L53.7751 43.8279ZM56.4023 24.9279V11.1241H56.1123V24.9279H56.4023ZM63.3707 11.2691H65.9469V10.9791H63.3707V11.2691ZM65.8019 11.1241V41.7693H66.0919V11.1241H65.8019ZM65.8019 41.7693C65.8019 42.4924 65.7253 43.0463 65.5443 43.4716C65.3659 43.8908 65.0831 44.1923 64.6516 44.408L64.7813 44.6674C65.2726 44.4218 65.6051 44.0696 65.8112 43.5852C66.0147 43.1069 66.0919 42.5073 66.0919 41.7693H65.8019ZM64.6537 44.407C63.7289 44.8509 62.3813 44.9312 59.9509 44.8926L59.9463 45.1826C62.3606 45.2209 63.7815 45.1474 64.7792 44.6685L64.6537 44.407ZM60.0914 45.0124C59.9743 44.3489 59.6251 43.1067 59.2734 42.325L59.0089 42.444C59.3492 43.2004 59.6922 44.419 59.8058 45.0628L60.0914 45.0124ZM59.1342 42.5294C60.749 42.6062 62.2577 42.6068 62.6917 42.5674L62.6655 42.2785C62.2536 42.316 60.7631 42.3166 59.148 42.2397L59.1342 42.5294ZM62.6897 42.5675C62.9451 42.5479 63.1648 42.4975 63.3146 42.3477C63.467 42.1953 63.5157 41.9726 63.5157 41.6924H63.2257C63.2257 41.9505 63.1783 42.0739 63.1096 42.1426C63.0383 42.2139 62.9119 42.2596 62.6675 42.2784L62.6897 42.5675ZM63.5157 41.6924V11.1241H63.2257V41.6924H63.5157ZM81.5713 17.9277C82.9983 23.4427 86.0122 28.7547 90.021 31.0899L90.1669 30.8393C86.2549 28.5605 83.2705 23.337 81.8521 17.8551L81.5713 17.9277ZM89.9985 30.8555C89.3724 31.4033 88.516 32.4151 88.0844 33.1606L88.3354 33.3059C88.7496 32.5903 89.585 31.6026 90.1894 31.0738L89.9985 30.8555ZM88.2915 33.1134C84.1045 30.2586 81.118 24.6085 79.5453 18.3559L79.264 18.4266C80.8442 24.7089 83.856 30.4402 88.1282 33.353L88.2915 33.1134ZM79.4354 18.533L81.7424 18.0331L81.681 17.7497L79.3739 18.2495L79.4354 18.533ZM84.093 10.3788L86.823 11.1862L86.9052 10.9081L84.1752 10.1007L84.093 10.3788ZM86.7349 10.9814C85.6957 13.0211 84.5085 15.2799 83.4776 16.7308L83.714 16.8988C84.7594 15.4274 85.9561 13.149 86.9933 11.113L86.7349 10.9814ZM83.643 16.6777L81.4129 15.9087L81.3184 16.1829L83.5485 16.9519L83.643 16.6777ZM81.4908 16.119C82.4168 14.5371 83.6517 12.0294 84.2707 10.2883L83.9975 10.1911C83.3861 11.9106 82.1601 14.4015 81.2405 15.9725L81.4908 16.119ZM75.6749 27.6106H78.3665V27.3206H75.6749V27.6106ZM78.2218 27.4564C77.9528 31.6836 77.4442 35.2834 76.0344 38.2269C74.6284 41.1624 72.3209 43.455 68.4294 45.0573L68.5399 45.3255C72.4924 43.698 74.8566 41.3573 76.296 38.3521C77.7315 35.3549 78.2419 31.7068 78.5112 27.4748L78.2218 27.4564ZM68.6172 45.1325C68.3013 44.4217 67.5574 43.4029 66.9227 42.8872L66.7398 43.1123C67.3355 43.5963 68.0528 44.5769 68.3521 45.2503L68.6172 45.1325ZM66.8831 43.1351C70.5283 41.7391 72.6542 39.6965 73.9216 37.0545C75.1846 34.4217 75.5889 31.205 75.8197 27.4746L75.5302 27.4567C75.2995 31.1857 74.8964 34.3518 73.6601 36.9291C72.4282 39.4971 70.363 41.4919 66.7794 42.8643L66.8831 43.1351ZM75.9681 9.8457L78.6597 10.1149L78.6885 9.82627L75.997 9.55712L75.9681 9.8457ZM78.5304 9.95106C77.0712 20.7029 74.0038 28.3447 67.3991 33.1932L67.5707 33.427C74.27 28.5091 77.3547 20.7706 78.8178 9.99006L78.5304 9.95106ZM67.6108 33.2382C67.4517 32.9598 67.1486 32.5302 66.8102 32.1048C66.4719 31.6795 66.0906 31.2486 65.7732 30.9709L65.5823 31.1891C65.8801 31.4497 66.2486 31.8647 66.5832 32.2853C66.9177 32.7058 67.2105 33.1222 67.359 33.3821L67.6108 33.2382ZM65.7582 31.2007C72.1567 26.935 74.933 19.5746 76.1265 9.71884L75.8386 9.68398C74.6481 19.515 71.8875 26.7659 65.5973 30.9593L65.7582 31.2007ZM83.3266 31.8018H86.0566V31.5118H83.3266V31.8018ZM86.0566 31.6568C85.9116 31.6568 85.9116 31.6568 85.9116 31.6568C85.9116 31.6568 85.9116 31.6568 85.9116 31.6568C85.9116 31.6568 85.9116 31.6568 85.9116 31.6569C85.9116 31.657 85.9116 31.6571 85.9116 31.6573C85.9116 31.6576 85.9116 31.6581 85.9116 31.6589C85.9116 31.6603 85.9116 31.6624 85.9116 31.6653C85.9116 31.6709 85.9116 31.6793 85.9115 31.6901C85.9115 31.7117 85.9113 31.743 85.911 31.7818C85.9104 31.8595 85.9092 31.967 85.9068 32.0864C85.902 32.3269 85.8925 32.61 85.8739 32.7959L86.1625 32.8247C86.1823 32.626 86.192 32.3324 86.1968 32.0922C86.1992 31.9713 86.2004 31.8626 86.201 31.784C86.2013 31.7448 86.2015 31.713 86.2016 31.6911C86.2016 31.6801 86.2016 31.6715 86.2016 31.6657C86.2016 31.6628 86.2016 31.6606 86.2016 31.6591C86.2016 31.6583 86.2016 31.6578 86.2016 31.6574C86.2016 31.6572 86.2016 31.657 86.2016 31.6569C86.2016 31.6569 86.2016 31.6568 86.2016 31.6568C86.2016 31.6568 86.2016 31.6568 86.2016 31.6568C86.2016 31.6568 86.2016 31.6568 86.0566 31.6568ZM85.8734 32.8019C85.6619 36.4354 85.4507 38.9282 85.178 40.641C84.9042 42.3612 84.5719 43.2646 84.1411 43.7493L84.3578 43.942C84.8498 43.3885 85.1904 42.4078 85.4645 40.6866C85.7397 38.9581 85.9515 36.4523 86.1629 32.8187L85.8734 32.8019ZM84.1411 43.7493C83.8461 44.0811 83.5462 44.2981 83.2031 44.4426C82.8579 44.5879 82.4618 44.6629 81.9697 44.7008L81.992 44.9899C82.4996 44.9509 82.9302 44.8721 83.3156 44.7098C83.7031 44.5467 84.0376 44.3023 84.3578 43.942L84.1411 43.7493ZM81.9683 44.7009C81.0936 44.7769 79.4479 44.7773 77.7579 44.7005L77.7447 44.9902C79.4383 45.0672 81.0993 45.0676 81.9934 44.9898L81.9683 44.7009ZM77.8961 44.8381C77.8567 44.0508 77.5827 42.9861 77.1424 42.3057L76.899 42.4633C77.3046 43.0902 77.5689 44.1018 77.6064 44.8526L77.8961 44.8381ZM77.007 42.5289C78.6293 42.6834 80.1733 42.6833 80.7889 42.6833V42.3933C80.174 42.3933 78.6419 42.3932 77.0345 42.2402L77.007 42.5289ZM80.7889 42.6833C81.0583 42.6833 81.2865 42.6742 81.4891 42.6209C81.6976 42.566 81.8738 42.4659 82.0449 42.2948L81.8399 42.0897C81.7034 42.2262 81.5719 42.2992 81.4152 42.3404C81.2525 42.3832 81.0577 42.3933 80.7889 42.3933V42.6833ZM82.0478 42.2918C82.2346 42.094 82.3892 41.7772 82.5247 41.3242C82.6611 40.8683 82.7825 40.2593 82.8935 39.463C83.1155 37.8702 83.2984 35.5096 83.4714 32.087L83.1818 32.0724C83.0088 35.4941 82.8264 37.8437 82.6062 39.423C82.4961 40.2128 82.3772 40.8054 82.2469 41.2411C82.1156 41.6797 81.977 41.9444 81.837 42.0927L82.0478 42.2918ZM83.4716 32.0797V31.6568H83.1816V32.0797H83.4716ZM68.5732 11.3371L70.7649 10.5296L70.6647 10.2575L68.473 11.0649L68.5732 11.3371ZM70.5924 10.4714C71.6636 12.1546 72.6942 14.3709 73.0738 15.8135L73.3543 15.7397C72.9649 14.2601 71.9192 12.0161 70.8371 10.3157L70.5924 10.4714ZM73.1625 15.6411L70.7401 16.5639L70.8433 16.8349L73.2657 15.9121L73.1625 15.6411ZM70.9337 16.6703C70.622 15.1507 69.6532 12.8285 68.6479 11.1272L68.3983 11.2748C69.3924 12.9572 70.3461 15.2491 70.6496 16.7286L70.9337 16.6703Z" fill="#93A603"/>
<path d="M5.55538 48.5654V8.1627H11.1108V9.17277H6.56545V47.5554H11.1108V48.5654H5.55538Z" fill="#93A603"/>
<path d="M5.55538 48.5654H4.55538V49.5654H5.55538V48.5654ZM5.55538 8.1627V7.1627H4.55538V8.1627H5.55538ZM11.1108 8.1627H12.1108V7.1627H11.1108V8.1627ZM11.1108 9.17277V10.1728H12.1108V9.17277H11.1108ZM6.56545 9.17277V8.17277H5.56545V9.17277H6.56545ZM6.56545 47.5554H5.56545V48.5554H6.56545V47.5554ZM11.1108 47.5554H12.1108V46.5554H11.1108V47.5554ZM11.1108 48.5654V49.5654H12.1108V48.5654H11.1108ZM6.55538 48.5654V8.1627H4.55538V48.5654H6.55538ZM5.55538 9.1627H11.1108V7.1627H5.55538V9.1627ZM10.1108 8.1627V9.17277H12.1108V8.1627H10.1108ZM11.1108 8.17277H6.56545V10.1728H11.1108V8.17277ZM5.56545 9.17277V47.5554H7.56545V9.17277H5.56545ZM6.56545 48.5554H11.1108V46.5554H6.56545V48.5554ZM10.1108 47.5554V48.5654H12.1108V47.5554H10.1108ZM11.1108 47.5654H5.55538V49.5654H11.1108V47.5654Z" fill="#93A603"/>
<path d="M101.445 48.5654V8.1627H95.8892V9.17277H100.435V47.5554H95.8892V48.5654H101.445Z" fill="#93A603"/>
<path d="M101.445 48.5654H102.445V49.5654H101.445V48.5654ZM101.445 8.1627V7.1627H102.445V8.1627H101.445ZM95.8892 8.1627H94.8892V7.1627H95.8892V8.1627ZM95.8892 9.17277V10.1728H94.8892V9.17277H95.8892ZM100.435 9.17277V8.17277H101.435V9.17277H100.435ZM100.435 47.5554H101.435V48.5554H100.435V47.5554ZM95.8892 47.5554H94.8892V46.5554H95.8892V47.5554ZM95.8892 48.5654V49.5654H94.8892V48.5654H95.8892ZM100.445 48.5654V8.1627H102.445V48.5654H100.445ZM101.445 9.1627H95.8892V7.1627H101.445V9.1627ZM96.8892 8.1627V9.17277H94.8892V8.1627H96.8892ZM95.8892 8.17277H100.435V10.1728H95.8892V8.17277ZM101.435 9.17277V47.5554H99.4346V9.17277H101.435ZM100.435 48.5554H95.8892V46.5554H100.435V48.5554ZM96.8892 47.5554V48.5654H94.8892V47.5554H96.8892ZM95.8892 47.5654H101.445V49.5654H95.8892V47.5654Z" fill="#93A603"/>
</svg>
