<svg width="85" height="36" viewBox="0 0 85 36" fill="none" xmlns="http://www.w3.org/2000/svg">
<path d="M66.7878 8.5H76.7878" stroke="white" stroke-width="2"/>
<path d="M16.1558 15.036C16.0972 15.1533 16.0278 15.236 15.9478 15.284C15.8732 15.332 15.7825 15.356 15.6758 15.356C15.5692 15.356 15.4492 15.316 15.3158 15.236C15.1825 15.1507 15.0252 15.0573 14.8438 14.956C14.6625 14.8547 14.4492 14.764 14.2038 14.684C13.9638 14.5987 13.6785 14.556 13.3478 14.556C13.0492 14.556 12.7878 14.5933 12.5638 14.668C12.3452 14.7373 12.1585 14.836 12.0038 14.964C11.8545 15.092 11.7425 15.2467 11.6678 15.428C11.5932 15.604 11.5558 15.7987 11.5558 16.012C11.5558 16.284 11.6305 16.5107 11.7798 16.692C11.9345 16.8733 12.1372 17.028 12.3878 17.156C12.6385 17.284 12.9238 17.3987 13.2438 17.5C13.5638 17.6013 13.8892 17.7107 14.2198 17.828C14.5558 17.94 14.8838 18.0733 15.2038 18.228C15.5238 18.3773 15.8092 18.5693 16.0598 18.804C16.3105 19.0333 16.5105 19.316 16.6598 19.652C16.8145 19.988 16.8918 20.396 16.8918 20.876C16.8918 21.3987 16.8012 21.8893 16.6198 22.348C16.4438 22.8013 16.1825 23.1987 15.8358 23.54C15.4945 23.876 15.0758 24.1427 14.5798 24.34C14.0838 24.532 13.5158 24.628 12.8758 24.628C12.5078 24.628 12.1452 24.5907 11.7878 24.516C11.4305 24.4467 11.0865 24.3453 10.7558 24.212C10.4305 24.0787 10.1238 23.9187 9.83584 23.732C9.55318 23.5453 9.29984 23.3373 9.07584 23.108L9.69984 22.076C9.75851 22.0013 9.82784 21.94 9.90784 21.892C9.99318 21.8387 10.0865 21.812 10.1878 21.812C10.3212 21.812 10.4652 21.868 10.6198 21.98C10.7745 22.0867 10.9558 22.2067 11.1638 22.34C11.3772 22.4733 11.6252 22.596 11.9078 22.708C12.1958 22.8147 12.5398 22.868 12.9398 22.868C13.5532 22.868 14.0278 22.724 14.3638 22.436C14.6998 22.1427 14.8678 21.724 14.8678 21.18C14.8678 20.876 14.7905 20.628 14.6358 20.436C14.4865 20.244 14.2865 20.084 14.0358 19.956C13.7852 19.8227 13.4998 19.7107 13.1798 19.62C12.8598 19.5293 12.5345 19.4307 12.2038 19.324C11.8732 19.2173 11.5478 19.0893 11.2278 18.94C10.9078 18.7907 10.6225 18.596 10.3718 18.356C10.1212 18.116 9.91851 17.8173 9.76384 17.46C9.61451 17.0973 9.53984 16.652 9.53984 16.124C9.53984 15.7027 9.62251 15.292 9.78784 14.892C9.95851 14.492 10.2038 14.1373 10.5238 13.828C10.8492 13.5187 11.2465 13.2707 11.7158 13.084C12.1852 12.8973 12.7212 12.804 13.3238 12.804C14.0065 12.804 14.6358 12.9107 15.2118 13.124C15.7878 13.3373 16.2785 13.636 16.6838 14.02L16.1558 15.036ZM26.63 12.932V14.644H21.502V17.852H25.542V19.508H21.502V22.78H26.63V24.5H19.334V12.932H26.63ZM30.4182 12.932C30.5142 12.932 30.5942 12.9373 30.6582 12.948C30.7222 12.9533 30.7782 12.9693 30.8262 12.996C30.8796 13.0173 30.9302 13.052 30.9782 13.1C31.0262 13.1427 31.0796 13.2013 31.1382 13.276L37.2102 21.012C37.1889 20.8253 37.1729 20.644 37.1622 20.468C37.1569 20.2867 37.1542 20.1187 37.1542 19.964V12.932H39.0502V24.5H37.9382C37.7676 24.5 37.6262 24.4733 37.5142 24.42C37.4022 24.3667 37.2929 24.2707 37.1862 24.132L31.1382 16.428C31.1542 16.5987 31.1649 16.7693 31.1702 16.94C31.1809 17.1053 31.1862 17.2573 31.1862 17.396V24.5H29.2902V12.932H30.4182ZM48.384 15.036C48.3253 15.1533 48.256 15.236 48.176 15.284C48.1013 15.332 48.0106 15.356 47.904 15.356C47.7973 15.356 47.6773 15.316 47.544 15.236C47.4106 15.1507 47.2533 15.0573 47.072 14.956C46.8906 14.8547 46.6773 14.764 46.432 14.684C46.192 14.5987 45.9066 14.556 45.576 14.556C45.2773 14.556 45.016 14.5933 44.792 14.668C44.5733 14.7373 44.3866 14.836 44.232 14.964C44.0826 15.092 43.9706 15.2467 43.896 15.428C43.8213 15.604 43.784 15.7987 43.784 16.012C43.784 16.284 43.8586 16.5107 44.008 16.692C44.1626 16.8733 44.3653 17.028 44.616 17.156C44.8666 17.284 45.152 17.3987 45.472 17.5C45.792 17.6013 46.1173 17.7107 46.448 17.828C46.784 17.94 47.112 18.0733 47.432 18.228C47.752 18.3773 48.0373 18.5693 48.288 18.804C48.5386 19.0333 48.7386 19.316 48.888 19.652C49.0426 19.988 49.12 20.396 49.12 20.876C49.12 21.3987 49.0293 21.8893 48.848 22.348C48.672 22.8013 48.4106 23.1987 48.064 23.54C47.7226 23.876 47.304 24.1427 46.808 24.34C46.312 24.532 45.744 24.628 45.104 24.628C44.736 24.628 44.3733 24.5907 44.016 24.516C43.6586 24.4467 43.3146 24.3453 42.984 24.212C42.6586 24.0787 42.352 23.9187 42.064 23.732C41.7813 23.5453 41.528 23.3373 41.304 23.108L41.928 22.076C41.9866 22.0013 42.056 21.94 42.136 21.892C42.2213 21.8387 42.3146 21.812 42.416 21.812C42.5493 21.812 42.6933 21.868 42.848 21.98C43.0026 22.0867 43.184 22.2067 43.392 22.34C43.6053 22.4733 43.8533 22.596 44.136 22.708C44.424 22.8147 44.768 22.868 45.168 22.868C45.7813 22.868 46.256 22.724 46.592 22.436C46.928 22.1427 47.096 21.724 47.096 21.18C47.096 20.876 47.0186 20.628 46.864 20.436C46.7146 20.244 46.5146 20.084 46.264 19.956C46.0133 19.8227 45.728 19.7107 45.408 19.62C45.088 19.5293 44.7626 19.4307 44.432 19.324C44.1013 19.2173 43.776 19.0893 43.456 18.94C43.136 18.7907 42.8506 18.596 42.6 18.356C42.3493 18.116 42.1466 17.8173 41.992 17.46C41.8426 17.0973 41.768 16.652 41.768 16.124C41.768 15.7027 41.8506 15.292 42.016 14.892C42.1866 14.492 42.432 14.1373 42.752 13.828C43.0773 13.5187 43.4746 13.2707 43.944 13.084C44.4133 12.8973 44.9493 12.804 45.552 12.804C46.2346 12.804 46.864 12.9107 47.44 13.124C48.016 13.3373 48.5066 13.636 48.912 14.02L48.384 15.036ZM61.3221 24.5H59.1541V19.444H53.7301V24.5H51.5621V12.932H53.7301V17.908H59.1541V12.932H61.3221V24.5ZM75.5518 18.716C75.5518 19.564 75.4105 20.3507 75.1278 21.076C74.8452 21.796 74.4478 22.42 73.9358 22.948C73.4238 23.476 72.8078 23.8893 72.0878 24.188C71.3678 24.4813 70.5705 24.628 69.6958 24.628C68.8212 24.628 68.0212 24.4813 67.2958 24.188C66.5758 23.8893 65.9572 23.476 65.4398 22.948C64.9278 22.42 64.5305 21.796 64.2478 21.076C63.9652 20.3507 63.8238 19.564 63.8238 18.716C63.8238 17.868 63.9652 17.084 64.2478 16.364C64.5305 15.6387 64.9278 15.012 65.4398 14.484C65.9572 13.956 66.5758 13.5453 67.2958 13.252C68.0212 12.9533 68.8212 12.804 69.6958 12.804C70.5705 12.804 71.3678 12.9533 72.0878 13.252C72.8078 13.5507 73.4238 13.964 73.9358 14.492C74.4478 15.0147 74.8452 15.6387 75.1278 16.364C75.4105 17.084 75.5518 17.868 75.5518 18.716ZM73.3438 18.716C73.3438 18.0813 73.2585 17.5133 73.0878 17.012C72.9225 16.5053 72.6825 16.076 72.3678 15.724C72.0532 15.372 71.6692 15.1027 71.2158 14.916C70.7678 14.7293 70.2612 14.636 69.6958 14.636C69.1305 14.636 68.6212 14.7293 68.1678 14.916C67.7145 15.1027 67.3278 15.372 67.0078 15.724C66.6932 16.076 66.4505 16.5053 66.2798 17.012C66.1092 17.5133 66.0238 18.0813 66.0238 18.716C66.0238 19.3507 66.1092 19.9213 66.2798 20.428C66.4505 20.9293 66.6932 21.356 67.0078 21.708C67.3278 22.0547 67.7145 22.3213 68.1678 22.508C68.6212 22.6947 69.1305 22.788 69.6958 22.788C70.2612 22.788 70.7678 22.6947 71.2158 22.508C71.6692 22.3213 72.0532 22.0547 72.3678 21.708C72.6825 21.356 72.9225 20.9293 73.0878 20.428C73.2585 19.9213 73.3438 19.3507 73.3438 18.716Z" fill="white"/>
</svg>
