<svg width="41" height="36" viewBox="0 0 41 36" fill="none" xmlns="http://www.w3.org/2000/svg">
<path d="M29.4665 11.5099C30.5179 10.8644 31.2141 9.98346 31.555 8.86306C30.5948 9.38241 29.5643 9.7598 28.4957 9.98346C27.5809 8.99969 26.4228 8.5 25.0343 8.5C23.6771 8.5 22.5307 8.97627 21.595 9.90278C21.1432 10.3427 20.786 10.8703 20.5452 11.4532C20.3044 12.0361 20.1852 12.662 20.1949 13.2926C20.1949 13.6947 20.2456 14.0539 20.3471 14.3584C16.3444 14.2217 13.0313 12.5613 10.4209 9.36535C9.97851 10.1474 9.7573 10.9438 9.7573 11.7675C9.7573 13.4605 10.4717 14.8021 11.8979 15.7872C11.0846 15.7182 10.3676 15.5126 9.7573 15.1756C9.7573 16.3845 10.1125 17.3943 10.8243 18.283C11.5158 19.1491 12.4902 19.7439 13.5766 19.963C13.1706 20.0671 12.7424 20.1165 12.3026 20.1165C11.8966 20.1165 11.609 20.0827 11.4386 20.0085C11.7378 20.9936 12.3026 21.7926 13.1185 22.4042C13.9251 23.0166 14.9062 23.3554 15.9189 23.371C14.1856 24.7309 12.2037 25.4036 9.9616 25.4036C9.41246 25.4036 9.02337 25.3958 8.78784 25.3542C10.9961 26.7882 13.4542 27.5 16.1739 27.5C18.9574 27.5 21.4168 26.7947 23.5574 25.3841C25.698 23.9813 27.2777 22.2506 28.2927 20.2128C29.2965 18.241 29.8191 16.0596 29.8178 13.847V13.238C30.7534 12.5482 31.5633 11.7026 32.2122 10.7382C31.3359 11.118 30.4123 11.3776 29.4665 11.5099Z" fill="#FDFDFD"/>
</svg>
