<svg width="112" height="29" viewBox="0 0 112 29" fill="none" xmlns="http://www.w3.org/2000/svg">
<path d="M10.7823 10.2992C10.6896 10.4613 10.5893 10.581 10.4812 10.6582C10.3808 10.7277 10.2534 10.7625 10.099 10.7625C9.93684 10.7625 9.75926 10.7046 9.56623 10.5887C9.38093 10.4652 9.15702 10.3301 8.89451 10.1834C8.632 10.0367 8.32316 9.90544 7.968 9.78963C7.62056 9.66609 7.20749 9.60433 6.72879 9.60433C6.29642 9.60433 5.91809 9.65837 5.59381 9.76646C5.26953 9.86684 4.99544 10.0097 4.77154 10.195C4.55535 10.3803 4.39321 10.6042 4.28512 10.8667C4.17702 11.1215 4.12298 11.4033 4.12298 11.7121C4.12298 12.1059 4.23107 12.434 4.44726 12.6966C4.67116 12.9591 4.96456 13.183 5.32744 13.3683C5.69033 13.5536 6.1034 13.7196 6.56665 13.8663C7.02991 14.013 7.50474 14.1713 7.99116 14.3411C8.47758 14.5033 8.95242 14.6963 9.41567 14.9202C9.87893 15.1364 10.292 15.4143 10.6549 15.754C11.0178 16.086 11.3073 16.4953 11.5235 16.9817C11.7474 17.4681 11.8593 18.0587 11.8593 18.7536C11.8593 19.5103 11.7281 20.2206 11.4656 20.8846C11.2108 21.5409 10.8325 22.1161 10.3306 22.6102C9.83647 23.0967 9.23037 23.4827 8.51233 23.7684C7.79428 24.0463 6.972 24.1853 6.04549 24.1853C5.51274 24.1853 4.98772 24.1313 4.47042 24.0232C3.95312 23.9228 3.45512 23.7761 2.97642 23.5831C2.50544 23.39 2.06149 23.1584 1.64456 22.8882C1.22763 22.618 0.857023 22.3168 0.532744 21.9848L1.44767 20.4908C1.52488 20.3827 1.62526 20.294 1.74879 20.2245C1.87233 20.1473 2.00358 20.1087 2.14256 20.1087C2.33558 20.1087 2.54405 20.1897 2.76795 20.3519C2.99186 20.5063 3.25823 20.68 3.56707 20.873C3.87591 21.066 4.23493 21.2436 4.64414 21.4058C5.06107 21.5602 5.55907 21.6374 6.13814 21.6374C7.02605 21.6374 7.71321 21.4289 8.19963 21.012C8.68605 20.5873 8.92926 19.9813 8.92926 19.1937C8.92926 18.7536 8.8173 18.3946 8.5934 18.1167C8.37721 17.8387 8.08767 17.6071 7.72479 17.4218C7.36191 17.2287 6.94884 17.0666 6.48558 16.9353C6.02233 16.8041 5.55135 16.6613 5.07265 16.5068C4.59395 16.3524 4.12298 16.1671 3.65972 15.9509C3.19647 15.7347 2.7834 15.4529 2.42051 15.1055C2.05763 14.758 1.76423 14.3257 1.54033 13.8084C1.32414 13.2833 1.21605 12.6387 1.21605 11.8743C1.21605 11.2643 1.33572 10.6698 1.57507 10.0907C1.82214 9.51167 2.1773 8.99823 2.64056 8.55042C3.10381 8.1026 3.67516 7.74358 4.3546 7.47335C5.03405 7.20312 5.81386 7.068 6.69405 7.068C7.68233 7.068 8.5934 7.22242 9.42726 7.53126C10.2611 7.84009 10.9714 8.27246 11.5582 8.82837L10.7823 10.2992ZM18.8621 9.73172V14.3759H24.7223V16.7732H18.8621V21.51H26.2974V24H15.7351V7.2533H26.2974V9.73172H18.8621ZM44.3341 7.2533V24H42.7359C42.4888 24 42.2804 23.9614 42.1105 23.8842C41.9484 23.7993 41.7901 23.6603 41.6357 23.4673L32.8917 12.3028C32.938 12.8124 32.9612 13.2833 32.9612 13.7157V24H30.2164V7.2533H31.8494C31.9806 7.2533 32.0926 7.26102 32.1852 7.27646C32.2856 7.28419 32.3705 7.30735 32.44 7.34595C32.5172 7.37684 32.5906 7.42702 32.6601 7.49651C32.7296 7.55828 32.8068 7.64321 32.8917 7.7513L41.6704 18.9621C41.6472 18.6919 41.6279 18.4255 41.6125 18.163C41.5971 17.9005 41.5893 17.6573 41.5893 17.4333V7.2533H44.3341ZM58.1393 10.2992C58.0467 10.4613 57.9463 10.581 57.8382 10.6582C57.7378 10.7277 57.6104 10.7625 57.456 10.7625C57.2939 10.7625 57.1163 10.7046 56.9233 10.5887C56.738 10.4652 56.5141 10.3301 56.2516 10.1834C55.989 10.0367 55.6802 9.90544 55.325 9.78963C54.9776 9.66609 54.5645 9.60433 54.0858 9.60433C53.6535 9.60433 53.2751 9.65837 52.9509 9.76646C52.6266 9.86684 52.3525 10.0097 52.1286 10.195C51.9124 10.3803 51.7503 10.6042 51.6422 10.8667C51.5341 11.1215 51.48 11.4033 51.48 11.7121C51.48 12.1059 51.5881 12.434 51.8043 12.6966C52.0282 12.9591 52.3216 13.183 52.6845 13.3683C53.0474 13.5536 53.4604 13.7196 53.9237 13.8663C54.387 14.013 54.8618 14.1713 55.3482 14.3411C55.8346 14.5033 56.3095 14.6963 56.7727 14.9202C57.236 15.1364 57.649 15.4143 58.0119 15.754C58.3748 16.086 58.6644 16.4953 58.8805 16.9817C59.1044 17.4681 59.2164 18.0587 59.2164 18.7536C59.2164 19.5103 59.0851 20.2206 58.8226 20.8846C58.5678 21.5409 58.1895 22.1161 57.6877 22.6102C57.1935 23.0967 56.5874 23.4827 55.8694 23.7684C55.1513 24.0463 54.329 24.1853 53.4025 24.1853C52.8698 24.1853 52.3448 24.1313 51.8275 24.0232C51.3102 23.9228 50.8122 23.7761 50.3335 23.5831C49.8625 23.39 49.4185 23.1584 49.0016 22.8882C48.5847 22.618 48.2141 22.3168 47.8898 21.9848L48.8047 20.4908C48.8819 20.3827 48.9823 20.294 49.1058 20.2245C49.2294 20.1473 49.3606 20.1087 49.4996 20.1087C49.6926 20.1087 49.9011 20.1897 50.125 20.3519C50.3489 20.5063 50.6153 20.68 50.9241 20.873C51.233 21.066 51.592 21.2436 52.0012 21.4058C52.4181 21.5602 52.9161 21.6374 53.4952 21.6374C54.3831 21.6374 55.0703 21.4289 55.5567 21.012C56.0431 20.5873 56.2863 19.9813 56.2863 19.1937C56.2863 18.7536 56.1744 18.3946 55.9504 18.1167C55.7343 17.8387 55.4447 17.6071 55.0818 17.4218C54.719 17.2287 54.3059 17.0666 53.8426 16.9353C53.3794 16.8041 52.9084 16.6613 52.4297 16.5068C51.951 16.3524 51.48 16.1671 51.0168 15.9509C50.5535 15.7347 50.1404 15.4529 49.7776 15.1055C49.4147 14.758 49.1213 14.3257 48.8974 13.8084C48.6812 13.2833 48.5731 12.6387 48.5731 11.8743C48.5731 11.2643 48.6928 10.6698 48.9321 10.0907C49.1792 9.51167 49.5344 8.99823 49.9976 8.55042C50.4609 8.1026 51.0322 7.74358 51.7117 7.47335C52.3911 7.20312 53.1709 7.068 54.0511 7.068C55.0394 7.068 55.9504 7.22242 56.7843 7.53126C57.6182 7.84009 58.3285 8.27246 58.9153 8.82837L58.1393 10.2992ZM77.2099 7.2533V24H74.0829V16.6806H66.2192V24H63.0922V7.2533H66.2192V14.4569H74.0829V7.2533H77.2099ZM98.0682 15.6267C98.0682 16.8543 97.8636 17.9931 97.4544 19.0432C97.0529 20.0855 96.4815 20.9888 95.7403 21.7532C94.9991 22.5176 94.1073 23.116 93.065 23.5483C92.0227 23.973 90.8645 24.1853 89.5906 24.1853C88.3244 24.1853 87.1701 23.973 86.1278 23.5483C85.0854 23.116 84.1898 22.5176 83.4409 21.7532C82.6997 20.9888 82.1245 20.0855 81.7152 19.0432C81.306 17.9931 81.1014 16.8543 81.1014 15.6267C81.1014 14.399 81.306 13.264 81.7152 12.2217C82.1245 11.1717 82.6997 10.2645 83.4409 9.50009C84.1898 8.73572 85.0854 8.14121 86.1278 7.71656C87.1701 7.28419 88.3244 7.068 89.5906 7.068C90.4399 7.068 91.239 7.16837 91.9879 7.36912C92.7369 7.56214 93.424 7.84009 94.0494 8.20298C94.6748 8.55814 95.2346 8.99437 95.7287 9.51167C96.2306 10.0213 96.6552 10.5926 97.0027 11.2257C97.3501 11.8588 97.6126 12.546 97.7902 13.2872C97.9755 14.0284 98.0682 14.8082 98.0682 15.6267ZM94.8833 15.6267C94.8833 14.7079 94.7598 13.8856 94.5127 13.1598C94.2656 12.4263 93.9143 11.8048 93.4588 11.2952C93.0032 10.7856 92.4473 10.3957 91.7911 10.1255C91.1425 9.85526 90.409 9.72014 89.5906 9.72014C88.7722 9.72014 88.0348 9.85526 87.3785 10.1255C86.73 10.3957 86.1741 10.7856 85.7108 11.2952C85.2553 11.8048 84.904 12.4263 84.6569 13.1598C84.4098 13.8856 84.2863 14.7079 84.2863 15.6267C84.2863 16.5454 84.4098 17.3716 84.6569 18.1051C84.904 18.8308 85.2553 19.4485 85.7108 19.9581C86.1741 20.46 86.73 20.846 87.3785 21.1162C88.0348 21.3865 88.7722 21.5216 89.5906 21.5216C90.409 21.5216 91.1425 21.3865 91.7911 21.1162C92.4473 20.846 93.0032 20.46 93.4588 19.9581C93.9143 19.4485 94.2656 18.8308 94.5127 18.1051C94.7598 17.3716 94.8833 16.5454 94.8833 15.6267Z" fill="#93A603"/>
<path d="M85.0476 2H94.0476" stroke="#93A603" stroke-width="3"/>
</svg>
