<svg width="317" height="253" viewBox="0 0 317 253" fill="none" xmlns="http://www.w3.org/2000/svg">
<path d="M25.9609 29.9499V45H14.7864V3.64052H28.3372C39.5776 3.64052 45.1978 7.71423 45.1978 15.8617C45.1978 20.652 42.8592 24.358 38.182 26.9795L50.2334 45H37.5596L28.7898 29.9499H25.9609ZM25.9609 21.5479H28.0543C31.9583 21.5479 33.9103 19.8222 33.9103 16.3709C33.9103 13.523 31.996 12.0991 28.1675 12.0991H25.9609V21.5479ZM71.7166 45.5658C66.3792 45.5658 62.2301 44.1513 59.2691 41.3223C56.327 38.4745 54.8559 34.4291 54.8559 29.1861C54.8559 23.7733 56.2233 19.6242 58.9579 16.7386C61.6926 13.8342 65.5966 12.382 70.6698 12.382C75.4979 12.382 79.2227 13.6456 81.8443 16.1728C84.4846 18.6812 85.8048 22.3023 85.8048 27.0361V31.9585H66.0303C66.1058 33.7501 66.7564 35.1552 67.9823 36.1736C69.2271 37.1921 70.915 37.7013 73.0462 37.7013C74.9887 37.7013 76.771 37.5221 78.3929 37.1638C80.0337 36.7866 81.8065 36.1548 83.7114 35.2684V43.2178C81.9763 44.1042 80.1846 44.7171 78.3363 45.0566C76.4881 45.3961 74.2815 45.5658 71.7166 45.5658ZM71.0659 19.9071C69.7646 19.9071 68.6707 20.322 67.7843 21.1518C66.9167 21.9628 66.4075 23.2453 66.2567 24.9992H75.762C75.7243 23.4527 75.2811 22.2174 74.4324 21.2933C73.6025 20.3691 72.4804 19.9071 71.0659 19.9071ZM119.707 35.1552C119.707 38.5877 118.538 41.1809 116.199 42.9349C113.861 44.6888 110.504 45.5658 106.128 45.5658C103.752 45.5658 101.687 45.4338 99.9327 45.1697C98.1787 44.9246 96.387 44.4625 94.5576 43.7835V34.9289C96.2739 35.6833 98.1504 36.3056 100.187 36.796C102.243 37.2864 104.072 37.5315 105.675 37.5315C108.071 37.5315 109.268 36.9846 109.268 35.8907C109.268 35.3249 108.929 34.8252 108.25 34.3914C107.59 33.9387 105.647 33.0712 102.422 31.7887C99.48 30.5817 97.4243 29.2144 96.255 27.6867C95.0857 26.1402 94.501 24.1882 94.501 21.8308C94.501 18.8509 95.6515 16.5312 97.9524 14.8715C100.253 13.2119 103.507 12.382 107.712 12.382C109.825 12.382 111.805 12.6178 113.653 13.0893C115.52 13.5419 117.453 14.2114 119.453 15.0978L116.454 22.2268C114.983 21.5667 113.427 21.0104 111.786 20.5577C110.145 20.0862 108.806 19.8505 107.769 19.8505C105.958 19.8505 105.053 20.2937 105.053 21.1801C105.053 21.727 105.364 22.1985 105.987 22.5946C106.628 22.9718 108.457 23.7545 111.475 24.9426C113.719 25.8668 115.388 26.772 116.482 27.6584C117.595 28.5448 118.406 29.5916 118.915 30.7986C119.443 31.9868 119.707 33.439 119.707 35.1552ZM144.217 45.5658C138.88 45.5658 134.731 44.1513 131.77 41.3223C128.828 38.4745 127.357 34.4291 127.357 29.1861C127.357 23.7733 128.724 19.6242 131.459 16.7386C134.193 13.8342 138.097 12.382 143.171 12.382C147.999 12.382 151.723 13.6456 154.345 16.1728C156.985 18.6812 158.306 22.3023 158.306 27.0361V31.9585H138.531C138.607 33.7501 139.257 35.1552 140.483 36.1736C141.728 37.1921 143.416 37.7013 145.547 37.7013C147.489 37.7013 149.272 37.5221 150.894 37.1638C152.534 36.7866 154.307 36.1548 156.212 35.2684V43.2178C154.477 44.1042 152.685 44.7171 150.837 45.0566C148.989 45.3961 146.782 45.5658 144.217 45.5658ZM143.567 19.9071C142.265 19.9071 141.171 20.322 140.285 21.1518C139.417 21.9628 138.908 23.2453 138.757 24.9992H148.263C148.225 23.4527 147.782 22.2174 146.933 21.2933C146.103 20.3691 144.981 19.9071 143.567 19.9071ZM188.36 45L186.239 40.7566H186.012C184.522 42.6048 183.004 43.8684 181.458 44.5474C179.911 45.2263 177.912 45.5658 175.46 45.5658C172.443 45.5658 170.066 44.6605 168.331 42.85C166.596 41.0394 165.729 38.4934 165.729 35.2118C165.729 31.7982 166.917 29.2615 169.293 27.6019C171.67 25.9233 175.111 24.9804 179.619 24.7729L184.966 24.6032V24.1505C184.966 21.5102 183.664 20.19 181.062 20.19C178.723 20.19 175.753 20.9821 172.15 22.5663L168.954 15.2676C172.688 13.3439 177.403 12.382 183.099 12.382C187.21 12.382 190.388 13.4005 192.632 15.4373C194.895 17.4742 196.027 20.322 196.027 23.9808V45H188.36ZM180.156 37.7578C181.496 37.7578 182.637 37.3335 183.58 36.4848C184.541 35.6361 185.022 34.5328 185.022 33.1749V30.6854L182.476 30.7986C178.836 30.9306 177.016 32.2697 177.016 34.8157C177.016 36.7771 178.063 37.7578 180.156 37.7578ZM225.799 12.382C226.761 12.382 227.676 12.4575 228.543 12.6083L229.165 12.7215L228.175 23.1604C227.27 22.9341 226.016 22.8209 224.413 22.8209C221.999 22.8209 220.245 23.3773 219.151 24.49C218.057 25.5839 217.51 27.1681 217.51 29.2427V45H206.449V12.9478H214.681L216.407 18.0682H216.944C217.868 16.3709 219.151 15.0035 220.792 13.9662C222.451 12.9101 224.12 12.382 225.799 12.382ZM251.158 45.5658C245.915 45.5658 241.935 44.1513 239.22 41.3223C236.523 38.4934 235.174 34.4291 235.174 29.1295C235.174 23.811 236.636 19.6902 239.559 16.7669C242.482 13.8437 246.641 12.382 252.035 12.382C255.75 12.382 259.249 13.193 262.53 14.8149L259.277 22.9906C257.938 22.406 256.703 21.9439 255.571 21.6045C254.439 21.2461 253.261 21.067 252.035 21.067C250.243 21.067 248.857 21.7648 247.876 23.1604C246.896 24.556 246.405 26.5269 246.405 29.0729C246.405 34.2028 248.301 36.7677 252.091 36.7677C255.335 36.7677 258.447 35.8247 261.427 33.9387V42.7368C258.579 44.6228 255.156 45.5658 251.158 45.5658ZM290.86 45V27.517C290.86 23.217 289.587 21.067 287.04 21.067C285.23 21.067 283.891 21.8308 283.023 23.3584C282.175 24.8672 281.75 27.385 281.75 30.9118V45H270.689V0.981294H281.75V7.23331C281.75 10.0623 281.599 13.2873 281.298 16.9084H281.807C282.863 15.2487 284.117 14.0794 285.569 13.4005C287.022 12.7215 288.71 12.382 290.633 12.382C294.217 12.382 296.998 13.4193 298.979 15.4939C300.978 17.5496 301.977 20.4351 301.977 24.1505V45H290.86ZM64.1293 150.212C61.47 150.212 59.3955 151.306 57.9055 153.494C56.4156 155.663 55.6707 158.661 55.6707 162.49C55.6707 170.449 58.6976 174.428 64.7516 174.428C66.581 174.428 68.3538 174.174 70.0701 173.664C71.7863 173.155 73.512 172.542 75.2471 171.826V181.274C71.7958 182.802 67.8918 183.566 63.5352 183.566C57.2926 183.566 52.5022 181.755 49.164 178.134C45.8447 174.513 44.1851 169.28 44.1851 162.433C44.1851 158.152 44.9866 154.39 46.5897 151.146C48.2116 147.902 50.5314 145.412 53.5489 143.677C56.5854 141.923 60.1498 141.046 64.2424 141.046C68.7122 141.046 72.9839 142.018 77.0576 143.96L73.6346 152.758C72.1069 152.042 70.5793 151.438 69.0517 150.948C67.524 150.457 65.8832 150.212 64.1293 150.212ZM104.934 150.382C105.896 150.382 106.811 150.457 107.678 150.608L108.301 150.722L107.311 161.16C106.405 160.934 105.151 160.821 103.548 160.821C101.134 160.821 99.3801 161.377 98.2862 162.49C97.1923 163.584 96.6454 165.168 96.6454 167.243V183H85.5841V150.948H93.8164L95.5421 156.068H96.0796C97.0037 154.371 98.2862 153.004 99.927 151.966C101.587 150.91 103.256 150.382 104.934 150.382ZM111.82 150.948H123.475L128.907 169.336C129.171 170.298 129.35 171.458 129.444 172.816H129.671C129.822 171.514 130.048 170.373 130.35 169.393L135.923 150.948H147.21L134.537 185.037C132.915 189.375 130.915 192.439 128.539 194.231C126.182 196.023 123.098 196.919 119.288 196.919C117.817 196.919 116.309 196.758 114.762 196.438V187.753C115.762 187.979 116.903 188.092 118.185 188.092C119.166 188.092 120.024 187.904 120.759 187.526C121.495 187.149 122.136 186.612 122.683 185.914C123.23 185.235 123.815 184.113 124.437 182.547L111.82 150.948ZM173.192 183.566C171.57 183.566 170.117 183.302 168.835 182.774C167.552 182.227 166.279 181.255 165.016 179.86H164.507C164.846 182.104 165.016 183.5 165.016 184.047V196.919H153.955V150.948H162.951L164.507 155.022H165.016C167.072 151.929 169.91 150.382 173.531 150.382C177.077 150.382 179.858 151.853 181.876 154.795C183.894 157.737 184.903 161.773 184.903 166.903C184.903 172.071 183.847 176.144 181.735 179.124C179.642 182.085 176.794 183.566 173.192 183.566ZM169.486 159.067C167.864 159.067 166.723 159.652 166.063 160.821C165.421 161.971 165.072 163.688 165.016 165.97V166.847C165.016 169.6 165.384 171.59 166.119 172.816C166.855 174.042 168.015 174.655 169.599 174.655C171.013 174.655 172.041 174.051 172.682 172.844C173.324 171.618 173.644 169.6 173.644 166.79C173.644 164.036 173.324 162.066 172.682 160.877C172.041 159.67 170.976 159.067 169.486 159.067ZM209.838 174.824C211.328 174.824 213.11 174.457 215.185 173.721V181.784C213.695 182.425 212.271 182.877 210.913 183.141C209.574 183.424 207.999 183.566 206.189 183.566C202.473 183.566 199.795 182.661 198.154 180.85C196.514 179.021 195.693 176.22 195.693 172.448V159.237H191.817V154.739L196.74 151.259L199.597 144.526H206.839V150.948H214.704V159.237H206.839V171.712C206.839 173.787 207.839 174.824 209.838 174.824ZM254.292 166.903C254.292 172.146 252.878 176.239 250.049 179.181C247.239 182.104 243.297 183.566 238.224 183.566C233.358 183.566 229.482 182.066 226.597 179.068C223.73 176.069 222.297 172.014 222.297 166.903C222.297 161.679 223.702 157.624 226.512 154.739C229.341 151.834 233.301 150.382 238.394 150.382C241.543 150.382 244.325 151.052 246.739 152.391C249.153 153.73 251.011 155.653 252.312 158.162C253.632 160.651 254.292 163.565 254.292 166.903ZM233.528 166.903C233.528 169.657 233.896 171.76 234.631 173.212C235.367 174.645 236.602 175.362 238.337 175.362C240.053 175.362 241.26 174.645 241.958 173.212C242.675 171.76 243.033 169.657 243.033 166.903C243.033 164.169 242.675 162.103 241.958 160.708C241.241 159.312 240.015 158.614 238.28 158.614C236.583 158.614 235.367 159.312 234.631 160.708C233.896 162.085 233.528 164.15 233.528 166.903ZM19.9521 219.212C17.2929 219.212 15.2183 220.306 13.7284 222.494C12.2385 224.663 11.4935 227.661 11.4935 231.49C11.4935 239.449 14.5205 243.428 20.5745 243.428C22.4039 243.428 24.1767 243.174 25.893 242.664C27.6092 242.155 29.3349 241.542 31.07 240.826V250.274C27.6186 251.802 23.7147 252.566 19.358 252.566C13.1155 252.566 8.32508 250.755 4.9869 247.134C1.66758 243.513 0.00792024 238.28 0.00792024 231.433C0.00792024 227.152 0.809461 223.39 2.41254 220.146C4.03448 216.902 6.35423 214.412 9.3718 212.677C12.4082 210.923 15.9727 210.046 20.0653 210.046C24.5351 210.046 28.8068 211.018 32.8805 212.96L29.4575 221.758C27.9298 221.042 26.4022 220.438 24.8745 219.948C23.3469 219.457 21.7061 219.212 19.9521 219.212ZM72.0164 235.903C72.0164 241.146 70.6019 245.239 67.773 248.181C64.9629 251.104 61.0212 252.566 55.9479 252.566C51.0821 252.566 47.2064 251.066 44.3208 248.068C41.4542 245.069 40.0208 241.014 40.0208 235.903C40.0208 230.679 41.4259 226.624 44.236 223.739C47.0649 220.834 51.0255 219.382 56.1176 219.382C59.2672 219.382 62.049 220.052 64.4631 221.391C66.8771 222.73 68.7348 224.653 70.0361 227.162C71.3563 229.651 72.0164 232.565 72.0164 235.903ZM51.2518 235.903C51.2518 238.657 51.6196 240.76 52.3551 242.212C53.0906 243.645 54.3259 244.362 56.061 244.362C57.7773 244.362 58.9843 243.645 59.6821 242.212C60.3988 240.76 60.7571 238.657 60.7571 235.903C60.7571 233.169 60.3988 231.103 59.6821 229.708C58.9655 228.312 57.7396 227.614 56.0045 227.614C54.3071 227.614 53.0906 228.312 52.3551 229.708C51.6196 231.085 51.2518 233.15 51.2518 235.903ZM92.3114 252H81.2502V207.981H92.3114V252ZM113.936 252H102.875V207.981H113.936V252ZM139.974 252.566C134.637 252.566 130.487 251.151 127.526 248.322C124.584 245.475 123.113 241.429 123.113 236.186C123.113 230.773 124.481 226.624 127.215 223.739C129.95 220.834 133.854 219.382 138.927 219.382C143.755 219.382 147.48 220.646 150.102 223.173C152.742 225.681 154.062 229.302 154.062 234.036V238.958H134.288C134.363 240.75 135.014 242.155 136.24 243.174C137.484 244.192 139.172 244.701 141.303 244.701C143.246 244.701 145.028 244.522 146.65 244.164C148.291 243.787 150.064 243.155 151.969 242.268V250.218C150.234 251.104 148.442 251.717 146.594 252.057C144.745 252.396 142.539 252.566 139.974 252.566ZM139.323 226.907C138.022 226.907 136.928 227.322 136.042 228.152C135.174 228.963 134.665 230.245 134.514 231.999H144.019C143.982 230.453 143.538 229.217 142.69 228.293C141.86 227.369 140.738 226.907 139.323 226.907ZM177.808 252.566C172.565 252.566 168.586 251.151 165.87 248.322C163.173 245.493 161.825 241.429 161.825 236.13C161.825 230.811 163.286 226.69 166.21 223.767C169.133 220.844 173.291 219.382 178.685 219.382C182.401 219.382 185.899 220.193 189.181 221.815L185.928 229.991C184.589 229.406 183.353 228.944 182.222 228.604C181.09 228.246 179.911 228.067 178.685 228.067C176.894 228.067 175.508 228.765 174.527 230.16C173.546 231.556 173.056 233.527 173.056 236.073C173.056 241.203 174.951 243.768 178.742 243.768C181.986 243.768 185.098 242.825 188.078 240.939V249.737C185.23 251.623 181.807 252.566 177.808 252.566ZM213.04 243.824C214.53 243.824 216.313 243.457 218.387 242.721V250.784C216.897 251.425 215.473 251.877 214.115 252.141C212.776 252.424 211.202 252.566 209.391 252.566C205.676 252.566 202.998 251.661 201.357 249.85C199.716 248.021 198.896 245.22 198.896 241.448V228.237H195.02V223.739L199.942 220.259L202.8 213.526H210.042V219.948H217.906V228.237H210.042V240.712C210.042 242.787 211.041 243.824 213.04 243.824ZM238.003 252H226.942V219.948H238.003V252ZM226.659 211.97C226.659 210.31 227.121 209.075 228.045 208.264C228.969 207.453 230.459 207.048 232.515 207.048C234.571 207.048 236.07 207.463 237.013 208.292C237.956 209.122 238.427 210.348 238.427 211.97C238.427 215.214 236.457 216.836 232.515 216.836C228.611 216.836 226.659 215.214 226.659 211.97ZM257.025 252L244.804 219.948H256.346L261.778 238.902C261.797 238.996 261.834 239.156 261.891 239.383C261.948 239.609 262.004 239.883 262.061 240.203C262.117 240.505 262.164 240.835 262.202 241.193C262.259 241.533 262.287 241.853 262.287 242.155H262.485C262.485 241.174 262.655 240.109 262.994 238.958L268.68 219.948H280.194L267.973 252H257.025ZM302.413 252.566C297.076 252.566 292.927 251.151 289.966 248.322C287.023 245.475 285.552 241.429 285.552 236.186C285.552 230.773 286.92 226.624 289.654 223.739C292.389 220.834 296.293 219.382 301.366 219.382C306.194 219.382 309.919 220.646 312.541 223.173C315.181 225.681 316.501 229.302 316.501 234.036V238.958H296.727C296.802 240.75 297.453 242.155 298.679 243.174C299.924 244.192 301.612 244.701 303.743 244.701C305.685 244.701 307.467 244.522 309.089 244.164C310.73 243.787 312.503 243.155 314.408 242.268V250.218C312.673 251.104 310.881 251.717 309.033 252.057C307.185 252.396 304.978 252.566 302.413 252.566ZM301.762 226.907C300.461 226.907 299.367 227.322 298.481 228.152C297.613 228.963 297.104 230.245 296.953 231.999H306.458C306.421 230.453 305.978 229.217 305.129 228.293C304.299 227.369 303.177 226.907 301.762 226.907Z" fill="#F2F2F2"/>
<path d="M77.1764 81.382C78.5909 81.382 79.7791 81.6744 80.7409 82.259C81.7028 82.8248 82.7495 83.9658 83.8811 85.6821H84.1074L84.164 84.6353C84.296 82.0327 84.5318 79.9864 84.8712 78.4965L86.6252 69.9813H97.6864L88.3509 114H79.6094L79.8923 110.52H79.6659C78.5909 112.01 77.4593 113.057 76.2712 113.661C75.083 114.264 73.6874 114.566 72.0843 114.566C69.1045 114.566 66.8413 113.519 65.2948 111.426C63.7483 109.313 62.975 106.286 62.975 102.345C62.975 98.9876 63.6446 95.5646 64.9836 92.0755C66.3415 88.5865 68.0766 85.9367 70.1889 84.1261C72.3012 82.2967 74.6304 81.382 77.1764 81.382ZM76.5824 105.768C77.5254 105.768 78.4212 105.221 79.2699 104.127C80.1374 103.014 80.8258 101.534 81.335 99.6854C81.8442 97.8372 82.0988 96.0266 82.0988 94.2538C82.0988 91.538 81.3445 90.1801 79.8357 90.1801C78.9115 90.1801 78.0063 90.7365 77.1199 91.8492C76.2335 92.9619 75.5168 94.433 74.9699 96.2624C74.4229 98.0729 74.1495 99.8929 74.1495 101.722C74.1495 104.419 74.9604 105.768 76.5824 105.768ZM124.007 81.382C125.063 81.382 125.818 81.4575 126.27 81.6083L123.894 92.4433C122.876 92.0284 121.716 91.8209 120.414 91.8209C118.472 91.8209 116.916 92.4904 115.747 93.8295C114.596 95.1497 113.719 97.1771 113.116 99.9118L110.117 114H99.1688L105.93 81.9478H114.672L114.162 87.2946H114.389C115.615 85.1823 116.944 83.6735 118.378 82.7682C119.811 81.8441 121.687 81.382 124.007 81.382ZM138.361 114H127.413L134.174 81.9478H145.179L138.361 114ZM135.504 74.9037C135.504 72.9611 136.06 71.4901 137.173 70.4905C138.305 69.4909 139.88 68.9912 141.898 68.9912C143.614 68.9912 144.934 69.3401 145.858 70.0379C146.801 70.7168 147.273 71.6975 147.273 72.98C147.273 74.866 146.726 76.3276 145.632 77.3649C144.538 78.3833 142.963 78.8925 140.907 78.8925C137.305 78.8925 135.504 77.5629 135.504 74.9037ZM155.092 114L150.99 81.9478H161.881L162.645 99.0065C162.645 100.383 162.57 101.496 162.419 102.345H162.645C162.664 102.081 162.834 101.487 163.154 100.562C163.475 99.6383 163.814 98.7896 164.173 98.0163C164.531 97.2431 167.03 91.8869 171.67 81.9478H183.381L166.068 114H155.092ZM197.962 114.566C193.964 114.566 190.852 113.453 188.626 111.228C186.401 108.983 185.288 105.871 185.288 101.892C185.288 97.9126 186.071 94.3293 187.636 91.142C189.22 87.9358 191.38 85.5123 194.115 83.8715C196.868 82.2119 200.046 81.382 203.648 81.382C207.232 81.382 210.051 82.193 212.107 83.8149C214.163 85.4369 215.19 87.5963 215.19 90.2933C215.19 94.0841 213.71 96.9979 210.749 99.0348C207.807 101.053 203.544 102.062 197.962 102.062H196.293V102.514C196.293 105.306 197.839 106.701 200.932 106.701C202.422 106.701 203.884 106.484 205.317 106.051C206.751 105.598 208.382 104.891 210.211 103.929V111.68C208.099 112.755 206.128 113.51 204.299 113.943C202.469 114.358 200.357 114.566 197.962 114.566ZM202.432 88.7939C201.281 88.7939 200.206 89.454 199.207 90.7742C198.207 92.0755 197.604 93.556 197.396 95.2157H198.217C200.272 95.2157 201.885 94.829 203.054 94.0558C204.223 93.2637 204.808 92.2264 204.808 90.9439C204.808 90.3404 204.619 89.8312 204.242 89.4163C203.865 89.0014 203.262 88.7939 202.432 88.7939ZM241.596 92.4999C241.596 91.6889 241.388 91.0854 240.974 90.6893C240.559 90.2744 240.059 90.067 239.474 90.067C238.399 90.067 237.4 90.7365 236.476 92.0755C235.57 93.4146 234.825 95.508 234.241 98.3558L230.959 114H220.011L226.772 81.9478H235.514L235.174 86.4176H235.4C236.438 84.6259 237.654 83.3434 239.05 82.5702C240.464 81.7781 242.19 81.382 244.227 81.382C246.886 81.382 248.961 82.193 250.451 83.8149C251.941 85.418 252.685 87.6435 252.685 90.4913C252.685 92.4904 252.45 94.6499 251.978 96.9696L248.385 114H237.437L241.087 96.517C241.426 95.0459 241.596 93.7069 241.596 92.4999Z" fill="#CBC5C5"/>
</svg>
