<svg width="77" height="77" viewBox="0 0 77 77" fill="none" xmlns="http://www.w3.org/2000/svg">
<g clip-path="url(#clip0_486_40936)">
<path d="M75.76 38.13C75.76 58.9125 58.9125 75.76 38.13 75.76C17.3475 75.76 0.5 58.9125 0.5 38.13C0.5 17.3475 17.3475 0.5 38.13 0.5C58.9125 0.5 75.76 17.3475 75.76 38.13Z" stroke="url(#paint0_linear_486_40936)"/>
<path d="M69.06 38.13C69.06 55.2122 55.2122 69.06 38.13 69.06C21.0478 69.06 7.2 55.2122 7.2 38.13C7.2 21.0478 21.0478 7.2 38.13 7.2C55.2122 7.2 69.06 21.0478 69.06 38.13Z" stroke="url(#paint1_linear_486_40936)"/>
<path d="M58.2724 17.9916C69.3945 29.1137 69.3945 47.1463 58.2724 58.2684C47.1502 69.3905 29.1177 69.3905 17.9956 58.2684C6.87343 47.1463 6.87343 29.1137 17.9956 17.9916C29.1177 6.86947 47.1502 6.86947 58.2724 17.9916Z" stroke="url(#paint2_linear_486_40936)"/>
<path d="M60.88 38.13C60.88 50.6945 50.6945 60.88 38.13 60.88C25.5655 60.88 15.38 50.6945 15.38 38.13C15.38 25.5655 25.5655 15.38 38.13 15.38C50.6945 15.38 60.88 25.5655 60.88 38.13Z" stroke="#C0D904"/>
<path d="M50.3 23.4292C58.4212 30.1525 59.5545 42.1863 52.8313 50.3076C46.108 58.4289 34.0741 59.5622 25.9529 52.8389C17.8316 46.1156 16.6983 34.0817 23.4216 25.9605C30.1448 17.8392 42.1787 16.7059 50.3 23.4292Z" fill="#C0D904" stroke="url(#paint3_linear_486_40936)"/>
<path d="M47.24 38.47L38.85 46.83C38.45 47.23 37.81 47.23 37.41 46.83L29.02 38.43C28.62 38.03 27.98 38.03 27.58 38.43C27.18 38.83 27.18 39.47 27.58 39.87L36.69 48.99L37.41 49.71C37.81 50.11 38.45 50.11 38.85 49.71L39.57 48.99L48.68 39.91C49.08 39.51 49.08 38.87 48.68 38.47C48.28 38.07 47.64 38.07 47.24 38.47Z" fill="url(#paint4_linear_486_40936)"/>
<path d="M47.24 29.36L38.85 37.72C38.45 38.12 37.81 38.12 37.41 37.72L29.02 29.32C28.62 28.92 27.98 28.92 27.58 29.32C27.18 29.72 27.18 30.36 27.58 30.76L36.69 39.88L37.41 40.6C37.81 41 38.45 41 38.85 40.6L39.57 39.88L48.68 30.8C49.08 30.4 49.08 29.76 48.68 29.36C48.28 28.96 47.64 28.96 47.24 29.36Z" fill="url(#paint5_linear_486_40936)"/>
</g>
<defs>
<linearGradient id="paint0_linear_486_40936" x1="35.5" y1="-6.5" x2="33" y2="95.5" gradientUnits="userSpaceOnUse">
<stop stop-color="#93A603"/>
<stop offset="1" stop-color="#C0D904"/>
</linearGradient>
<linearGradient id="paint1_linear_486_40936" x1="35" y1="70" x2="41.5" y2="4" gradientUnits="userSpaceOnUse">
<stop stop-color="#687314"/>
<stop offset="1" stop-color="#93A603"/>
</linearGradient>
<linearGradient id="paint2_linear_486_40936" x1="11.4999" y1="41.5" x2="65.4999" y2="48.5" gradientUnits="userSpaceOnUse">
<stop stop-color="#93A603"/>
<stop offset="1" stop-color="#687314"/>
</linearGradient>
<linearGradient id="paint3_linear_486_40936" x1="23.0364" y1="25.6416" x2="53.2164" y2="50.6264" gradientUnits="userSpaceOnUse">
<stop stop-color="#93A603"/>
<stop offset="1" stop-color="#687314"/>
</linearGradient>
<linearGradient id="paint4_linear_486_40936" x1="38.12" y1="40.12" x2="37.75" y2="117.41" gradientUnits="userSpaceOnUse">
<stop stop-color="#687314"/>
<stop offset="0.557292" stop-color="#93A603"/>
<stop offset="1" stop-color="#687314"/>
</linearGradient>
<linearGradient id="paint5_linear_486_40936" x1="38" y1="-7.5" x2="38" y2="80" gradientUnits="userSpaceOnUse">
<stop stop-color="#93A603"/>
<stop offset="0.427083" stop-color="#687314"/>
<stop offset="0.713542" stop-color="#687314"/>
<stop offset="0.9999" stop-color="#687314"/>
</linearGradient>
<clipPath id="clip0_486_40936">
<rect width="76.26" height="76.26" fill="white"/>
</clipPath>
</defs>
</svg>
