<svg width="30" height="24" viewBox="0 0 30 24" fill="none" xmlns="http://www.w3.org/2000/svg">
<path d="M26.1204 3.80193C27.4485 2.98665 28.3279 1.87384 28.7586 0.458599C27.5456 1.11462 26.2439 1.59133 24.8942 1.87384C23.7386 0.63119 22.2757 0 20.5219 0C18.8075 0 17.3594 0.601603 16.1775 1.77193C15.6068 2.32768 15.1555 2.99412 14.8514 3.7304C14.5473 4.46668 14.3967 5.25731 14.4089 6.05383C14.4089 6.56174 14.473 7.01541 14.6012 7.40004C9.5451 7.22745 5.36018 5.13006 2.06287 1.09308C1.50401 2.08095 1.22457 3.08691 1.22457 4.12739C1.22457 6.26587 2.12698 7.96055 3.9285 9.20485C2.90117 9.11773 1.99548 8.85802 1.22457 8.4323C1.22457 9.95932 1.67331 11.2348 2.57243 12.3575C3.44583 13.4515 4.67669 14.2028 6.0489 14.4796C5.53606 14.6111 4.99527 14.6735 4.4397 14.6735C3.92685 14.6735 3.56359 14.6308 3.34826 14.5371C3.72632 15.7814 4.4397 16.7906 5.47031 17.5632C6.48915 18.3368 7.72849 18.7647 9.0076 18.7845C6.81816 20.5022 4.31477 21.352 1.48264 21.352C0.788987 21.352 0.297514 21.3421 0 21.2895C2.7894 23.1009 5.89439 24 9.32977 24C12.8457 24 15.9523 23.1091 18.6563 21.3273C21.3602 19.5554 23.3557 17.3692 24.6378 14.7951C25.9057 12.3044 26.5658 9.54891 26.5642 6.75406V5.9848C27.746 5.1135 28.769 4.04539 29.5887 2.8272C28.4818 3.30694 27.3151 3.63482 26.1204 3.80193Z" fill="#FDFDFD"/>
</svg>
